<svg width="59" height="63" viewBox="0 0 59 63" fill="none" xmlns="http://www.w3.org/2000/svg">
<path d="M28.0001 15.5C9.8131 15.5 0.000105491 20.652 0.000105491 25.5V30.5C-0.0100244 34.1786 0.709492 37.8226 2.11702 41.2213C3.52454 44.6199 5.59212 47.7057 8.20011 50.3C9.30493 51.4016 10.4986 52.4104 11.7691 53.316C11.285 53.9426 11.0153 54.7083 11.0001 55.5C11.0001 60.047 19.7591 62.5 28.0001 62.5C29.1871 62.5 30.3581 62.442 31.5001 62.348C31.6498 62.4434 31.8227 62.4959 32.0001 62.5H34.1141C35.478 62.5037 36.8291 62.2368 38.0892 61.7148C39.3493 61.1928 40.4933 60.4261 41.4551 59.459C41.6461 59.267 41.8171 59.059 41.9901 58.847C42.1651 59.058 42.3491 59.263 42.5451 59.459C43.5069 60.4261 44.6509 61.1928 45.911 61.7148C47.1711 62.2368 48.5222 62.5037 49.8861 62.5H52.0001C52.2653 62.5 52.5197 62.3947 52.7072 62.2071C52.8948 62.0196 53.0001 61.7652 53.0001 61.5V58.584C52.9988 57.0569 52.6439 55.5509 51.9631 54.184C51.7703 53.8116 51.5546 53.4516 51.3171 53.106C52.582 52.7238 53.7478 52.0691 54.7326 51.188C55.7173 50.3069 56.4971 49.2208 57.0171 48.006L57.9241 45.89C58.0109 45.684 58.0261 45.4548 57.9674 45.2391C57.9087 45.0234 57.7794 44.8336 57.6001 44.7L55.7491 43.312C55.0568 42.7993 54.293 42.391 53.4821 42.1C55.1498 38.4607 56.0089 34.5032 56.0001 30.5V25.5C56.0001 23.149 53.9921 21.02 50.2201 19.3L50.7021 18.337C52.4857 17.998 54.1254 17.1285 55.4068 15.8424C56.6881 14.5562 57.5515 12.9133 57.8838 11.1284C58.2161 9.3436 58.002 7.50001 57.2695 5.83885C56.5369 4.1777 55.32 2.77633 53.778 1.81808C52.236 0.859837 50.4406 0.389332 48.6268 0.468125C46.813 0.546917 45.0652 1.17134 43.6121 2.25969C42.159 3.34805 41.0682 4.84967 40.4824 6.56809C39.8967 8.28651 39.8432 10.1417 40.3291 11.891L37.3291 16.055C34.2334 15.6831 31.1181 15.4978 28.0001 15.5ZM13.0001 55.5C13.0237 55.1023 13.1796 54.7239 13.4431 54.425C17.826 57.1015 22.8646 58.512 28.0001 58.5C29.008 58.4936 30.0147 58.4332 31.0161 58.319C31.0161 58.408 31.0001 58.496 31.0001 58.585V60.385C30.0161 60.457 29.0161 60.505 28.0001 60.505C19.4151 60.5 13.0001 57.86 13.0001 55.5ZM40.0411 58.045C39.2646 58.8258 38.3409 59.4448 37.3235 59.8662C36.3061 60.2876 35.2153 60.503 34.1141 60.5H33.0001V58.584C32.9999 56.7001 33.6794 54.8793 34.9136 53.4561C36.1479 52.0328 37.8541 51.1025 39.7191 50.836L40.4061 50.736C39.74 52.8166 39.8979 55.0734 40.8471 57.041C40.6114 57.4009 40.3415 57.7371 40.0411 58.045ZM38.0001 42.5C38.0031 41.4533 38.2756 40.425 38.7914 39.5142C39.3073 38.6035 40.049 37.8409 40.9451 37.3L42.0001 36.666L43.0561 37.3C43.9541 37.8388 44.6973 38.6009 45.2133 39.5121C45.7293 40.4234 46.0005 41.4528 46.0005 42.5C46.0005 43.5472 45.7293 44.5766 45.2133 45.4879C44.6973 46.3991 43.9541 47.1613 43.0561 47.7L42.4691 48.053L42.0131 46.99C41.208 45.1238 39.7965 43.584 38.0071 42.62C38.0051 42.58 38.0001 42.54 38.0001 42.5ZM40.1741 47.777L40.5671 48.694L39.4371 48.855C37.4538 49.139 35.6047 50.0221 34.1371 51.386C32.9737 51.1921 31.8774 50.7094 30.9489 49.9821C30.0203 49.2548 29.2891 48.3061 28.8221 47.223L28.2221 45.828L29.4441 44.911C30.2993 44.2699 31.2888 43.8314 32.3382 43.6285C33.3875 43.4255 34.4692 43.4635 35.5017 43.7394C36.5343 44.0154 37.4907 44.5222 38.2988 45.2216C39.107 45.921 39.7458 46.7948 40.1671 47.777H40.1741ZM50.1741 55.084C50.7158 56.1713 50.9985 57.3692 51.0001 58.584V60.5H49.8861C48.7849 60.503 47.6941 60.2876 46.6767 59.8662C45.6593 59.4448 44.7356 58.8258 43.9591 58.045C43.336 57.4253 42.842 56.6882 42.5057 55.8763C42.1695 55.0644 41.9976 54.1938 42.0001 53.315C42.0026 52.542 42.1379 51.7752 42.4001 51.048L43.2541 51.688C44.8232 52.8597 46.7278 53.495 48.6861 53.5C48.8171 53.5 48.9431 53.477 49.0731 53.471C49.5057 53.9608 49.8755 54.5027 50.1741 55.084ZM55.7741 45.828L55.1741 47.223C54.7528 48.2052 54.114 49.079 53.3058 49.7784C52.4977 50.4778 51.5413 50.9846 50.5087 51.2606C49.4762 51.5366 48.3945 51.5745 47.3452 51.3716C46.2958 51.1686 45.3063 50.7301 44.4511 50.089L43.7891 49.589L44.0891 49.412C45.0653 48.8199 45.9053 48.028 46.554 47.0884C47.2027 46.1488 47.6454 45.0827 47.8531 43.96C48.9617 43.5546 50.1532 43.4291 51.3219 43.5944C52.4906 43.7598 53.6005 44.211 54.5531 44.908L55.7741 45.828ZM51.5001 41.614C50.3157 41.4577 49.1121 41.5324 47.9561 41.834C47.8493 40.5608 47.4428 39.331 46.7699 38.245C46.0969 37.1589 45.1766 36.2474 44.0841 35.585L42.5151 34.643C42.3596 34.5496 42.1815 34.5002 42.0001 34.5002C41.8187 34.5002 41.6406 34.5496 41.4851 34.643L39.9161 35.585C38.8244 36.2468 37.9046 37.1574 37.2317 38.2423C36.5588 39.3273 36.1518 40.5559 36.0441 41.828C35.276 41.615 34.4831 41.5047 33.6861 41.5C31.7268 41.5044 29.821 42.1398 28.2511 43.312L26.4001 44.7C26.2208 44.8345 26.0919 45.0253 26.0341 45.2418C25.9762 45.4584 25.9928 45.688 26.0811 45.894L26.9881 48.01C27.5107 49.2209 28.2916 50.303 29.2762 51.1805C30.2608 52.058 31.4253 52.7097 32.6881 53.09C32.0266 54.0568 31.5499 55.1377 31.2821 56.278C30.1938 56.4201 29.0977 56.4942 28.0001 56.5C21.1045 56.5 14.4913 53.7607 9.61533 48.8848C4.73938 44.0088 2.00011 37.3956 2.00011 30.5V29.273C5.72111 32.692 14.5771 35.5 28.0001 35.5C41.4231 35.5 50.2791 32.692 54.0001 29.273V30.5C54.0081 34.345 53.1538 38.1428 51.5001 41.614ZM54.0001 25.5C54.0001 29.284 43.3221 33.5 28.0001 33.5C12.6781 33.5 2.00011 29.284 2.00011 25.5C2.00011 21.716 12.6781 17.5 28.0001 17.5C30.6688 17.499 33.3358 17.6372 35.9901 17.914L34.6741 19.741C32.5201 19.587 30.2851 19.5 28.0001 19.5C20.0451 19.5 5.00011 20.754 5.00011 25.5C5.00011 30.246 20.0451 31.5 28.0001 31.5C35.9551 31.5 51.0001 30.246 51.0001 25.5C51.0001 24.378 50.2001 23.422 48.5731 22.59L49.3271 21.083C52.3001 22.43 54.0001 24.015 54.0001 25.5ZM27.6511 29.5C14.2911 29.45 7.00011 26.845 7.00011 25.5C7.00011 24.155 14.4121 21.5 28.0001 21.5C29.8001 21.5 31.5641 21.566 33.2891 21.665L27.6511 29.5ZM47.6791 24.382C48.7291 24.922 49.0001 25.357 49.0001 25.5C49.0001 25.981 48.0501 26.624 46.2411 27.253L47.6791 24.382ZM41.9791 15.13L43.5391 13.879C42.5376 12.6399 41.994 11.0933 42.0001 9.50001C42.0005 7.95915 42.5093 6.46147 43.4476 5.23924C44.3859 4.01701 45.7013 3.13851 47.1897 2.74C48.6781 2.34149 50.2565 2.44522 51.6799 3.03511C53.1034 3.62501 54.2925 4.6681 55.0627 6.00262C55.833 7.33715 56.1414 8.88854 55.9401 10.4162C55.7389 11.9439 55.0392 13.3624 53.9495 14.4519C52.8599 15.5414 51.4412 16.2409 49.9136 16.442C48.3859 16.6431 46.8345 16.3344 45.5001 15.564L44.5001 17.295C45.6935 17.9776 47.0279 18.3766 48.4001 18.461L43.6321 28C39.1938 28.948 34.6705 29.4419 30.1321 29.474L41.2401 14.045C41.4578 14.4232 41.7035 14.7845 41.9751 15.126L41.9791 15.13Z" fill="white"/>
</svg>
