<svg width="145" height="11" viewBox="0 0 145 11" fill="none" xmlns="http://www.w3.org/2000/svg">
<line x1="2.34424" y1="5.39575" x2="144.352" y2="5.39576" stroke="#5C3822"/>
<line y1="-0.25" x2="7.59381" y2="-0.25" transform="matrix(0.850024 -0.526745 0.903472 0.428647 137.897 5.89575)" stroke="#5C3822" stroke-width="0.5"/>
<line y1="-0.25" x2="7.59381" y2="-0.25" transform="matrix(0.850024 -0.526745 0.903472 0.428647 132.365 5.89575)" stroke="#5C3822" stroke-width="0.5"/>
<line y1="-0.25" x2="7.59381" y2="-0.25" transform="matrix(0.850024 -0.526745 0.903472 0.428647 126.832 5.89575)" stroke="#5C3822" stroke-width="0.5"/>
<line y1="-0.25" x2="7.59381" y2="-0.25" transform="matrix(0.850024 -0.526745 0.903472 0.428647 121.299 5.89575)" stroke="#5C3822" stroke-width="0.5"/>
<line y1="-0.25" x2="7.59381" y2="-0.25" transform="matrix(0.850024 0.526745 0.903472 -0.428647 137.897 4.89575)" stroke="#5C3822" stroke-width="0.5"/>
<line y1="-0.25" x2="7.59381" y2="-0.25" transform="matrix(0.850024 0.526745 0.903472 -0.428647 132.365 4.89575)" stroke="#5C3822" stroke-width="0.5"/>
<line y1="-0.25" x2="7.59381" y2="-0.25" transform="matrix(0.850024 0.526745 0.903472 -0.428647 126.832 4.89575)" stroke="#5C3822" stroke-width="0.5"/>
<line y1="-0.25" x2="7.59381" y2="-0.25" transform="matrix(0.850024 0.526745 0.903472 -0.428647 121.299 4.89575)" stroke="#5C3822" stroke-width="0.5"/>
<path d="M0.5 5.39575L13.4098 2.89575L19.3268 5.39575L13.4098 7.89575L0.5 5.39575Z" fill="#5C3822"/>
</svg>
