<svg width="11" height="78" viewBox="0 0 11 78" fill="none" xmlns="http://www.w3.org/2000/svg">
<line y1="-0.5" x2="77" y2="-0.5" transform="matrix(-8.74228e-08 -1 -1 8.74228e-08 4.89587 77)" stroke="#909F8C"/>
<line y1="-0.25" x2="5.31507" y2="-0.25" transform="matrix(0.752577 -0.658505 -0.658505 -0.752577 4.89587 3.5)" stroke="#909F8C" stroke-width="0.5"/>
<line y1="-0.25" x2="5.31507" y2="-0.25" transform="matrix(0.752577 -0.658505 -0.658505 -0.752577 4.89587 6.5)" stroke="#909F8C" stroke-width="0.5"/>
<line y1="-0.25" x2="5.31507" y2="-0.25" transform="matrix(0.752577 -0.658505 -0.658505 -0.752577 4.89587 9.5)" stroke="#909F8C" stroke-width="0.5"/>
<line y1="-0.25" x2="5.31507" y2="-0.25" transform="matrix(0.752577 -0.658505 -0.658505 -0.752577 4.89587 12.5)" stroke="#909F8C" stroke-width="0.5"/>
<line x1="5.73125" y1="3.68814" x2="1.73125" y2="0.188144" stroke="#909F8C" stroke-width="0.5"/>
<line x1="5.73125" y1="6.68814" x2="1.73125" y2="3.18814" stroke="#909F8C" stroke-width="0.5"/>
<line x1="5.73125" y1="9.68814" x2="1.73125" y2="6.18814" stroke="#909F8C" stroke-width="0.5"/>
<line x1="5.73125" y1="12.6881" x2="1.73125" y2="9.18814" stroke="#909F8C" stroke-width="0.5"/>
<path d="M5.39587 78L7.89587 71L5.39587 67.7917L2.89587 71L5.39587 78Z" fill="#909F8C"/>
</svg>
