<svg width="1349" height="401" viewBox="0 0 1349 401" fill="none" xmlns="http://www.w3.org/2000/svg">
<path d="M89.268 160.281C87.6817 162.138 82.9706 163.894 76.8167 156.067C79.6402 155.267 86.0833 154.99 89.268 160.281Z" fill="#9FC049" stroke="#9FC049" stroke-width="1.07697" stroke-linejoin="round"/>
<path d="M60.3773 115.392C58.4498 120.005 50.3668 126.382 33.4546 114.981C38.4577 111.653 50.8467 107.075 60.3773 115.392Z" fill="#9FC049" stroke="#9FC049" stroke-width="2" stroke-linejoin="round"/>
<path d="M851.837 263.118C868.769 250.867 887.982 239.288 901.374 223.882M908.875 140.312C902.837 126.099 893.631 110.009 880.536 91.6421" stroke="#9FC049" stroke-width="2"/>
<path d="M640.019 287.429C643.107 289.167 650.404 289.208 654.886 275.465C650.64 275.786 641.721 278.627 640.019 287.429Z" fill="#9FC049" stroke="#9FC049" stroke-width="2" stroke-linejoin="round"/>
<path d="M625.986 329.637C622.486 330.194 615.63 327.698 616.2 313.255C620.071 315.03 627.447 320.792 625.986 329.637Z" fill="#9FC049" stroke="#9FC049" stroke-width="2" stroke-linejoin="round"/>
<path d="M508.199 343.559C505.772 343.832 501.131 341.896 501.984 331.976C504.593 333.321 509.487 337.52 508.199 343.559Z" fill="#9FC049" stroke="#9FC049" stroke-width="1.07697" stroke-linejoin="round"/>
<path d="M77.9919 138.167C82.9166 137.302 90.9166 130.822 83.5192 111.814C79.1708 115.962 71.9775 127.039 77.9919 138.167Z" fill="#9FC049" stroke="#9FC049" stroke-width="2" stroke-linejoin="round"/>
<path d="M88.2691 160.241C91.8592 160.131 98.2107 156.343 94.8961 142.079C91.3798 144.582 85.1315 151.718 88.2691 160.241Z" fill="#9FC049" stroke="#9FC049" stroke-width="1.07697" stroke-linejoin="round"/>
<path d="M42.8916 94.2881C46.3038 93.1084 51.2668 87.5745 43.8207 74.8765C41.1945 78.3299 37.332 87.0468 42.8916 94.2881Z" fill="#9FC049" stroke="#9FC049" stroke-width="1.29237" stroke-linejoin="round"/>
<path d="M29.5045 351.642C-19.3644 258.793 184.9 232.81 40.1349 91.6421" stroke="#9FC049" stroke-width="2" stroke-linejoin="round"/>
<path d="M1079.5 366.642C1096.09 365.366 1104.21 360.509 1108.1 353.815C1114.83 342.242 1108.93 325.179 1112.28 311.642C1114.59 302.325 1121.28 294.678 1139.5 291.642C1169.5 296.642 1184.5 321.642 1184.5 321.642C1184.5 321.642 1207.83 363.308 1219.5 366.642C1235.5 374.642 1254.5 361.642 1254.5 361.642C1279.5 346.642 1289.5 286.642 1284.5 236.642" stroke="#9FC049" stroke-width="2"/>
<path d="M1079.5 366.642C1096.09 365.366 1104.21 360.509 1108.1 353.815C1114.83 342.242 1108.93 325.179 1112.28 311.642C1114.59 302.325 1121.28 294.678 1139.5 291.642C1169.5 296.642 1184.5 321.642 1184.5 321.642C1184.5 321.642 1207.83 363.308 1219.5 366.642C1224.95 369.367 1230.75 369.655 1236.03 368.851C1246.24 367.294 1254.5 361.642 1254.5 361.642C1260.31 358.156 1265.31 352.239 1269.5 344.582C1277.33 330.275 1282.33 309.893 1284.5 287.938C1286.17 271.087 1286.17 253.309 1284.5 236.642" stroke="#9FC049" stroke-width="2"/>
<path d="M884.045 21.6421C854.501 51.6421 873.681 81.6222 884.045 96.6421C894.241 111.419 901.847 124.678 907.265 136.642C965.279 264.747 772.487 244.431 823.387 350.14" stroke="#9FC049" stroke-width="2"/>
<path d="M639.501 376.642C620.736 353.708 624.575 332.89 632.53 309.957C633.636 306.769 634.821 303.541 636.036 300.26C645.004 276.047 655.6 253.046 647.862 233.996C646.102 229.663 643.394 225.534 639.502 221.642C632.835 214.975 624.501 206.642 624.501 191.642" stroke="#9FC049" stroke-width="2" stroke-linejoin="round"/>
<path d="M334.501 271.642C364.501 241.642 367.832 228.223 379.501 186.642C392.448 140.506 419.794 58.2001 464.501 26.6421" stroke="#9FC049" stroke-width="2" stroke-linejoin="round"/>
<path d="M516.846 316.015C511.876 316.566 502.38 312.589 504.151 292.27C509.488 295.032 519.499 303.648 516.846 316.015Z" fill="#9FC049" stroke="#9FC049" stroke-width="2" stroke-linejoin="round"/>
<path d="M505.415 364.972C510.002 366.963 520.249 365.959 524.541 346.019C518.627 347.087 506.523 352.372 505.415 364.972Z" fill="#9FC049" stroke="#9FC049" stroke-width="2" stroke-linejoin="round"/>
<path d="M1008.05 245.284C1003.17 246.353 993.307 243.392 992.941 222.999C998.537 225.187 1009.4 232.706 1008.05 245.284Z" fill="#9FC049" stroke="#9FC049" stroke-width="2"/>
<path d="M828.546 361.97C824.603 365.044 814.431 366.635 805.287 348.403C811.28 347.958 824.321 350.047 828.546 361.97Z" fill="#9FC049" stroke="#9FC049" stroke-width="2"/>
<path d="M818.594 337.647C821.772 338.231 828.076 336.103 827.866 322.925C824.3 324.46 817.452 329.554 818.594 337.647Z" fill="#9FC049" stroke="#9FC049" stroke-width="1.29237"/>
<path d="M914.809 205.334C918.52 207.821 927.687 208.587 934.667 191.753C929.298 191.74 917.809 194.438 914.809 205.334Z" fill="#9FC049" stroke="#9FC049" stroke-width="1.29237"/>
<path d="M870.066 69.6386C874.213 71.3018 883.339 70.1492 886.675 52.2334C881.42 53.3344 870.741 58.3569 870.066 69.6386Z" fill="#9FC049" stroke="#9FC049" stroke-width="1.29237"/>
<path d="M818.919 297.681C821.153 300.015 827.509 301.981 835.057 291.177C831.266 290.333 822.733 290.451 818.919 297.681Z" fill="#9FC049" stroke="#9FC049" stroke-width="1.29237"/>
<path d="M881.164 92.9769C879.479 95.8387 873.584 99.3051 863.484 90.2757C867.077 88.5371 875.643 86.6434 881.164 92.9769Z" fill="#9FC049" stroke="#9FC049" stroke-width="2"/>
<path d="M814.101 314.084C809.708 316.471 799.412 316.375 793.377 296.892C799.362 297.434 811.886 301.63 814.101 314.084Z" fill="#9FC049" stroke="#9FC049" stroke-width="2"/>
<path d="M869.041 45.9125C866.189 45.9659 861.002 43.2102 863.07 31.7596C865.958 33.6074 871.195 39.025 869.041 45.9125Z" fill="#9FC049" stroke="#9FC049" stroke-width="2"/>
<path d="M1113.86 306.279C1111.03 305.906 1106.31 302.406 1110.06 291.393C1112.64 293.651 1117.01 299.79 1113.86 306.279Z" fill="#9FC049" stroke="#9FC049" stroke-width="2"/>
<path d="M831.044 278.95C826.502 276.861 820.415 268.557 832.406 252.059C835.556 257.176 839.693 269.719 831.044 278.95Z" fill="#9FC049" stroke="#9FC049" stroke-width="2"/>
<path d="M87.4555 212.36C89.3027 213.957 94.2242 214.986 99.1327 206.324C96.2212 205.957 89.8096 206.651 87.4555 212.36Z" fill="#9FC049" stroke="#9FC049" stroke-width="1.07697" stroke-linejoin="round"/>
<path d="M59.7429 111.097C62.1819 110.976 66.451 108.32 64.0147 98.6658C61.6565 100.412 57.5006 105.344 59.7429 111.097Z" fill="#9FC049" stroke="#9FC049" stroke-width="1.07697" stroke-linejoin="round"/>
<path d="M41.7606 93.2843C40.5487 95.4045 36.2482 98.0095 28.7416 91.4684C31.3662 90.1558 37.6444 88.6812 41.7606 93.2843Z" fill="#9FC049" stroke="#9FC049" stroke-width="1.07697" stroke-linejoin="round"/>
<path d="M21.9502 312.785C19.5468 313.218 14.788 311.595 14.9801 301.64C17.672 302.809 22.8346 306.674 21.9502 312.785Z" fill="#9FC049" stroke="#9FC049" stroke-width="1.07697" stroke-linejoin="round"/>
<path d="M392.955 143.528C390.603 144.184 385.712 143.015 384.97 133.086C387.76 133.997 393.262 137.36 392.955 143.528Z" fill="#9FC049" stroke="#9FC049" stroke-width="1.07697" stroke-linejoin="round"/>
<path d="M631.165 363.345C629.714 365.309 625.139 367.394 618.448 360.021C621.207 359.024 627.615 358.293 631.165 363.345Z" fill="#9FC049" stroke="#9FC049" stroke-width="1.07697" stroke-linejoin="round"/>
<path d="M36.2031 283.032C31.4196 283.268 22.573 278.91 25.4546 259.587C30.3957 262.54 39.4628 271.362 36.2031 283.032Z" fill="#9FC049" stroke="#9FC049" stroke-width="1.29237" stroke-linejoin="round"/>
<path d="M22.8782 312.085C25.6118 313.808 32.2546 314.174 36.9565 301.861C33.0747 301.962 24.8245 304.147 22.8782 312.085Z" fill="#9FC049" stroke="#9FC049" stroke-width="1.29237" stroke-linejoin="round"/>
<path d="M25.0446 341.691C21.1016 344.766 10.9296 346.357 1.78608 328.125C7.77877 327.679 20.8203 329.768 25.0446 341.691Z" fill="#9FC049" stroke="#9FC049" stroke-width="2" stroke-linejoin="round"/>
<path d="M72.0479 240.024C75.5834 243.56 85.4829 246.388 96.7966 229.417C90.9041 228.239 77.7047 228.71 72.0479 240.024Z" fill="#9FC049" stroke="#9FC049" stroke-width="2" stroke-linejoin="round"/>
<path d="M875.27 31.6432C879.133 35.0781 889.522 37.3974 900.171 19.1958C894.018 18.3366 880.423 19.6231 875.27 31.6432Z" fill="#9FC049" stroke="#9FC049" stroke-width="2"/>
<path d="M901.453 222.335C898.293 221.93 893.008 218.041 897.155 205.722C900.046 208.234 904.953 215.073 901.453 222.335Z" fill="#9FC049" stroke="#9FC049" stroke-width="1.2746"/>
<path d="M916.541 187.52C913.383 187.938 907.278 185.532 908.131 172.562C911.569 174.25 918.064 179.603 916.541 187.52Z" fill="#9FC049" stroke="#9FC049" stroke-width="1.2746"/>
<path d="M234.189 214.21C231.094 214.811 224.364 213.229 222.199 202.089C226.368 202.884 234.602 206.422 234.189 214.21Z" fill="#9FC049" stroke="#9FC049" stroke-width="2" stroke-linejoin="round"/>
<path d="M234.927 211.866C239.346 213.656 249.794 213.261 256.239 197.355C249.821 197.326 236.573 200.188 234.927 211.866Z" fill="#9FC049" stroke="#9FC049" stroke-width="2" stroke-linejoin="round"/>
<path d="M588.189 135.152C592.607 136.943 603.055 136.547 609.501 120.641C603.083 120.612 589.835 123.474 588.189 135.152Z" fill="#9FC049" stroke="#9FC049" stroke-width="2" stroke-linejoin="round"/>
<path d="M965.342 103.802C972.542 107.162 977.942 113.042 981.542 121.442C985.142 129.602 987.422 138.602 988.382 148.442C990.062 168.602 984.782 195.362 972.542 228.722C958.142 267.362 942.062 290.522 924.302 298.202C920.702 299.882 916.622 300.722 912.062 300.722C907.742 300.722 903.782 299.882 900.182 298.202C896.342 296.762 893.462 294.602 891.542 291.722C889.862 288.842 888.662 286.082 887.942 283.442C887.222 280.562 886.862 278.042 886.862 275.882C886.862 273.722 886.862 272.522 886.862 272.282C887.342 270.602 888.422 269.762 890.102 269.762C892.022 270.242 892.742 271.202 892.262 272.642V275.882C892.262 277.082 892.382 278.402 892.622 279.842C892.862 281.042 893.222 282.242 893.702 283.442C893.942 283.922 894.662 284.642 895.862 285.602C897.062 286.562 899.102 287.042 901.982 287.042C907.982 287.042 913.382 285.002 918.182 280.922C923.222 276.602 927.782 271.082 931.862 264.362C936.182 257.402 940.142 249.482 943.742 240.602C947.342 231.482 950.822 222.002 954.182 212.162C963.782 185.042 967.862 160.442 966.422 138.362C966.422 136.202 966.182 133.682 965.702 130.802C965.222 127.682 964.622 124.682 963.902 121.802C963.182 118.922 962.342 116.402 961.382 114.242C960.422 112.082 959.222 110.642 957.782 109.922C956.822 109.202 955.742 109.082 954.542 109.562C950.222 111.722 945.302 115.562 939.782 121.082C934.502 126.362 929.222 132.842 923.942 140.522C918.662 148.202 913.502 156.722 908.462 166.082C903.422 175.202 899.102 184.442 895.502 193.802C891.182 219.722 886.622 243.602 881.822 265.442C877.022 287.282 872.462 306.362 868.142 322.682C864.062 339.002 860.462 352.322 857.342 362.642C854.462 372.722 852.542 379.202 851.582 382.082C850.382 386.162 848.342 389.522 845.462 392.162C841.622 395.522 836.942 398.282 831.422 400.442C830.942 400.682 830.222 400.802 829.262 400.802C827.342 400.802 825.902 400.202 824.942 399.002C823.262 397.322 822.782 395.042 823.502 392.162C827.342 383.522 831.302 371.882 835.382 357.242C839.462 342.602 843.422 326.522 847.262 309.002C851.342 291.482 855.182 273.122 858.782 253.922C862.622 234.722 865.982 216.002 868.862 197.762C871.982 179.522 874.622 162.482 876.782 146.642C878.942 130.802 880.502 117.482 881.462 106.682C881.462 103.562 882.902 101.402 885.782 100.202C888.182 99.2421 890.582 99.4821 892.982 100.922L899.462 105.962C902.102 107.882 904.022 110.282 905.222 113.162C906.422 116.042 906.782 119.162 906.302 122.522L898.742 172.922C902.582 165.242 906.662 157.922 910.982 150.962C915.302 143.762 919.622 137.282 923.942 131.522C928.502 125.522 932.942 120.362 937.262 116.042C941.822 111.482 946.022 108.122 949.862 105.962L952.382 104.522C952.622 104.522 952.742 104.522 952.742 104.522C952.982 104.282 953.222 104.162 953.462 104.162C958.502 102.242 962.462 102.122 965.342 103.802Z" fill="black"/>
<path d="M1128.25 306.122C1129.93 307.082 1130.29 308.282 1129.33 309.722C1122.61 321.722 1116.37 332.162 1110.61 341.042C1104.85 349.682 1099.33 357.002 1094.05 363.002L1093.33 363.722C1083.25 375.002 1074.49 380.642 1067.05 380.642C1066.57 380.642 1066.09 380.642 1065.61 380.642C1065.13 380.402 1064.65 380.282 1064.17 380.282C1059.13 379.082 1055.41 375.962 1053.01 370.922C1050.85 365.882 1049.53 360.602 1049.05 355.082C1048.57 348.122 1048.81 340.082 1049.77 330.962C1050.97 321.602 1052.77 311.882 1055.17 301.802C1050.61 310.202 1045.93 318.242 1041.13 325.922C1036.33 333.362 1031.41 339.962 1026.37 345.722C1026.13 346.202 1025.89 346.562 1025.65 346.802C1025.41 346.802 1025.05 347.042 1024.57 347.522C1021.21 351.122 1017.97 354.242 1014.85 356.882C1011.73 359.522 1008.49 361.442 1005.13 362.642C1002.25 363.842 999.611 364.442 997.211 364.442C995.051 364.442 992.771 363.842 990.371 362.642C985.811 360.962 982.451 356.762 980.291 350.042C978.371 344.522 977.531 337.802 977.771 329.882C978.011 321.722 979.091 313.202 981.011 304.322C982.931 295.202 985.571 285.962 988.931 276.602C992.531 267.242 996.731 258.242 1001.53 249.602C1002.49 247.202 1004.65 245.642 1008.01 244.922C1010.65 244.202 1013.17 244.802 1015.57 246.722L1018.09 248.522C1020.49 250.442 1022.05 252.962 1022.77 256.082C1023.49 258.962 1023.25 261.722 1022.05 264.362C1016.29 278.042 1011.97 289.922 1009.09 300.002C1006.45 309.842 1004.65 318.122 1003.69 324.842C1002.73 331.562 1002.61 336.722 1003.33 340.322C1004.29 343.922 1005.49 346.082 1006.93 346.802C1008.61 347.762 1010.17 348.242 1011.61 348.242C1013.29 348.002 1014.73 347.642 1015.93 347.162C1017.13 346.442 1018.21 345.722 1019.17 345.002C1020.13 344.282 1020.85 343.682 1021.33 343.202C1021.81 342.722 1022.05 342.482 1022.05 342.482L1022.41 342.122C1029.13 334.442 1035.85 324.722 1042.57 312.962C1049.53 301.202 1056.01 288.842 1062.01 275.882C1066.81 260.522 1071.85 247.442 1077.13 236.642C1078.57 233.522 1080.85 231.602 1083.97 230.882C1087.33 229.682 1090.45 230.042 1093.33 231.962L1095.49 233.402C1097.89 234.602 1099.45 236.402 1100.17 238.802C1101.13 240.962 1101.01 243.242 1099.81 245.642C1094.29 259.802 1089.49 273.002 1085.41 285.242C1081.57 297.482 1078.57 308.522 1076.41 318.362C1074.25 328.202 1072.93 336.722 1072.45 343.922C1072.21 350.882 1072.81 356.162 1074.25 359.762C1075.21 361.922 1076.65 363.362 1078.57 364.082C1080.49 364.802 1082.53 364.442 1084.69 363.002C1087.09 361.562 1088.77 360.482 1089.73 359.762C1089.97 359.762 1090.09 359.642 1090.09 359.402C1094.65 354.362 1099.69 347.642 1105.21 339.242C1110.97 330.842 1117.45 320.162 1124.65 307.202C1125.61 305.522 1126.81 305.162 1128.25 306.122Z" fill="black"/>
<path d="M1244.47 306.122C1245.91 306.842 1246.27 308.042 1245.55 309.722C1239.07 323.402 1231.99 335.762 1224.31 346.802C1216.63 357.602 1208.95 366.362 1201.27 373.082C1201.03 373.322 1200.79 373.562 1200.55 373.802C1200.31 374.042 1199.95 374.402 1199.47 374.882C1190.35 382.802 1182.43 386.762 1175.71 386.762H1175.35C1170.07 386.762 1165.75 384.482 1162.39 379.922C1160.23 376.562 1158.79 372.362 1158.07 367.322C1157.59 362.282 1157.59 356.882 1158.07 351.122C1158.79 345.362 1159.99 339.362 1161.67 333.122C1163.35 326.642 1165.39 320.522 1167.79 314.762C1165.39 315.242 1162.39 315.602 1158.79 315.842C1155.19 316.082 1151.47 316.082 1147.63 315.842C1144.03 315.602 1140.43 315.002 1136.83 314.042C1133.23 313.082 1130.35 311.402 1128.19 309.002C1122.67 303.482 1120.39 297.242 1121.35 290.282C1122.31 283.082 1125.43 273.842 1130.71 262.562C1131.67 259.682 1133.83 257.882 1137.19 257.162C1140.55 256.442 1143.31 257.162 1145.47 259.322L1148.71 262.202C1151.35 264.362 1153.03 267.122 1153.75 270.482C1154.47 273.602 1154.11 276.722 1152.67 279.842C1151.71 282.002 1150.63 284.402 1149.43 287.042C1148.47 289.442 1147.63 291.842 1146.91 294.242C1146.19 296.402 1145.71 298.562 1145.47 300.722C1145.47 302.642 1145.83 304.202 1146.55 305.402C1147.75 307.322 1150.39 308.282 1154.47 308.282C1159.27 308.522 1164.67 307.682 1170.67 305.762C1176.67 303.842 1182.07 301.922 1186.87 300.002C1189.75 298.802 1192.39 299.402 1194.79 301.802C1197.19 303.722 1197.79 306.362 1196.59 309.722C1194.43 315.242 1192.39 321.242 1190.47 327.722C1188.79 333.962 1187.35 339.962 1186.15 345.722C1185.19 351.482 1184.59 356.762 1184.35 361.562C1184.11 366.122 1184.59 369.602 1185.79 372.002C1186.27 373.202 1186.87 373.802 1187.59 373.802C1188.79 374.282 1189.99 374.282 1191.19 373.802C1192.63 373.082 1193.95 372.362 1195.15 371.642C1202.11 365.642 1209.67 357.242 1217.83 346.442C1225.99 335.642 1233.67 322.682 1240.87 307.562C1241.83 305.882 1243.03 305.402 1244.47 306.122Z" fill="black"/>
<path d="M1346.49 306.842C1347.69 307.802 1347.93 309.122 1347.21 310.802C1332.81 329.762 1320.33 344.282 1309.77 354.362C1299.45 364.442 1289.61 371.162 1280.25 374.522C1280.01 374.762 1279.89 374.882 1279.89 374.882C1274.13 376.802 1268.73 377.762 1263.69 377.762C1259.85 377.762 1255.29 376.562 1250.01 374.162C1244.97 371.762 1240.41 367.682 1236.33 361.922C1234.65 359.522 1233.21 356.762 1232.01 353.642C1230.57 350.282 1229.73 346.442 1229.49 342.122C1229.01 337.562 1229.13 332.522 1229.85 327.002C1230.57 321.482 1232.25 315.242 1234.89 308.282C1239.21 297.002 1243.89 287.402 1248.93 279.482C1253.97 271.562 1259.01 265.202 1264.05 260.402C1269.33 255.362 1274.37 251.762 1279.17 249.602C1284.21 247.442 1288.77 246.362 1292.85 246.362C1296.45 246.362 1299.93 247.322 1303.29 249.242C1306.65 250.922 1309.29 253.442 1311.21 256.802C1311.69 257.522 1312.05 258.242 1312.29 258.962C1312.53 259.682 1312.89 260.642 1313.37 261.842C1313.85 263.282 1314.09 264.482 1314.09 265.442C1314.57 268.082 1314.45 270.962 1313.73 274.082C1313.25 277.202 1312.05 280.802 1310.13 284.882C1306.77 290.882 1302.69 295.922 1297.89 300.002C1293.09 303.842 1288.29 306.962 1283.49 309.362C1278.69 311.762 1274.13 313.562 1269.81 314.762C1265.73 315.962 1262.85 316.682 1261.17 316.922C1257.57 327.482 1255.77 337.082 1255.77 345.722C1256.01 354.362 1258.17 360.962 1262.25 365.522C1266.33 370.322 1271.73 371.762 1278.45 369.842H1278.81C1282.65 368.402 1286.73 366.242 1291.05 363.362C1295.37 360.482 1300.05 356.642 1305.09 351.842C1310.37 346.802 1316.01 340.682 1322.01 333.482C1328.25 326.282 1335.21 317.642 1342.89 307.562C1344.09 306.362 1345.29 306.122 1346.49 306.842ZM1264.05 309.722L1263.33 310.802C1265.73 310.322 1268.73 309.482 1272.33 308.282C1276.17 306.842 1280.01 305.042 1283.85 302.882C1287.93 300.722 1291.89 297.962 1295.73 294.602C1299.57 291.242 1302.81 287.162 1305.45 282.362C1309.29 275.162 1310.25 268.802 1308.33 263.282L1306.17 260.402C1304.25 259.202 1302.09 259.082 1299.69 260.042C1297.77 260.762 1295.49 262.082 1292.85 264.002C1290.45 265.682 1287.69 268.442 1284.57 272.282C1281.45 276.122 1278.21 281.042 1274.85 287.042C1271.49 293.042 1267.89 300.602 1264.05 309.722Z" fill="black"/>
<path d="M188.935 321.122C190.615 322.082 190.975 323.282 190.015 324.722C185.695 332.642 181.135 340.562 176.335 348.482C171.535 356.162 166.735 363.362 161.935 370.082C157.135 376.802 152.335 382.682 147.535 387.722C142.975 392.762 138.535 396.362 134.215 398.522H133.495C131.575 399.962 127.855 400.682 122.335 400.682C118.015 400.682 114.055 399.962 110.455 398.522C104.695 396.602 100.855 393.122 98.9354 388.082C97.2554 383.522 96.2954 378.602 96.0554 373.322C95.8154 368.042 96.4154 361.442 97.8554 353.522C99.2954 345.602 101.455 335.882 104.335 324.362C107.215 312.602 110.815 298.082 115.135 280.802L116.215 277.562C125.335 242.522 131.095 214.682 133.495 194.042C135.895 173.402 136.135 160.442 134.215 155.162C131.575 149.162 128.935 145.682 126.295 144.722C124.855 144.002 122.815 144.242 120.175 145.442H119.815C114.055 148.322 108.535 152.762 103.255 158.762C98.2154 164.762 93.5354 171.722 89.2154 179.642C84.8954 187.322 81.1754 195.482 78.0554 204.122C74.9354 212.522 72.6554 220.682 71.2154 228.602C66.1754 266.282 61.2554 295.442 56.4554 316.082C51.6554 336.482 48.6554 349.082 47.4554 353.882C46.2554 357.962 44.3354 360.962 41.6954 362.882C40.0154 364.562 37.9754 366.122 35.5754 367.562C33.4154 368.762 31.0154 369.962 28.3754 371.162C27.8954 371.402 27.0554 371.522 25.8554 371.522C24.1754 371.522 22.7354 370.922 21.5354 369.722C19.8554 368.042 19.3754 366.002 20.0954 363.602C23.2154 355.682 26.2154 345.602 29.0954 333.362C32.2154 321.122 34.9754 307.802 37.3754 293.402C40.0154 278.762 42.2954 263.642 44.2154 248.042C46.3754 232.202 48.1754 216.842 49.6154 201.962C51.2954 186.842 52.6154 172.682 53.5754 159.482C54.5354 146.042 55.1354 134.522 55.3754 124.922C55.8554 122.042 57.1754 120.122 59.3354 119.162C60.2954 118.442 61.4954 118.082 62.9354 118.082C64.1354 118.082 65.4554 118.442 66.8954 119.162L73.7354 123.122C76.3754 124.802 78.4154 126.962 79.8554 129.602C81.2954 132.002 81.7754 134.762 81.2954 137.882C80.3354 148.442 79.3754 158.522 78.4154 168.122C77.4554 177.722 76.4954 187.082 75.5354 196.202C80.3354 183.962 86.3354 172.802 93.5354 162.722C100.975 152.402 108.895 145.082 117.295 140.762H118.015V140.402C127.135 136.322 135.415 136.202 142.855 140.042C147.655 142.442 151.135 146.522 153.295 152.282C155.455 158.042 156.655 165.002 156.895 173.162C157.375 181.082 157.135 189.842 156.175 199.442C155.215 209.042 153.775 218.882 151.855 228.962C149.935 238.802 147.775 248.642 145.375 258.482C143.215 268.082 141.175 276.962 139.255 285.122L134.935 302.402C133.975 306.962 132.895 311.522 131.695 316.082C130.495 320.642 129.295 325.082 128.095 329.402C126.175 336.842 124.255 344.282 122.335 351.722C120.655 358.922 119.335 365.522 118.375 371.522C117.655 377.522 117.655 382.562 118.375 386.642C119.095 390.722 121.015 393.362 124.135 394.562C126.055 395.282 128.575 395.042 131.695 393.842C134.815 392.402 138.775 389.162 143.575 384.122C148.615 378.842 154.495 371.282 161.215 361.442C168.175 351.602 176.215 338.522 185.335 322.202C186.295 320.762 187.495 320.402 188.935 321.122Z" fill="black"/>
<path d="M193.657 387.002C189.337 385.562 186.097 382.442 183.937 377.642C182.017 373.562 180.937 368.522 180.697 362.522C180.457 356.282 180.697 349.682 181.417 342.722C182.137 335.762 183.217 328.682 184.657 321.482C186.337 314.042 188.137 307.082 190.057 300.602C191.977 293.882 193.777 287.762 195.457 282.242C197.377 276.722 199.057 272.402 200.497 269.282C201.217 266.882 202.777 265.322 205.177 264.602C207.817 264.122 209.977 264.482 211.657 265.682L217.417 269.282C220.057 271.202 221.857 273.722 222.817 276.842C223.777 279.722 223.657 282.602 222.457 285.482C220.537 290.042 218.617 295.082 216.697 300.602C214.777 305.882 212.857 311.522 210.937 317.522C209.257 323.282 207.697 329.162 206.257 335.162C205.057 341.162 204.217 346.802 203.737 352.082C203.017 360.482 203.257 366.842 204.457 371.162C205.657 375.482 206.857 378.002 208.057 378.722C208.537 379.202 209.257 379.082 210.217 378.362H210.577C214.417 375.482 218.377 371.762 222.457 367.202C226.537 362.402 230.257 357.362 233.617 352.082C237.217 346.562 240.337 341.282 242.977 336.242C245.857 331.202 248.137 326.882 249.817 323.282C250.297 321.602 251.377 321.242 253.057 322.202C254.737 323.162 255.217 324.362 254.497 325.802C253.057 329.162 251.257 332.762 249.097 336.602C247.177 339.962 245.017 343.562 242.617 347.402C240.217 351.242 237.697 355.202 235.057 359.282C221.857 378.242 209.857 387.722 199.057 387.722C197.857 387.722 196.057 387.482 193.657 387.002ZM219.217 253.802C216.337 252.362 214.417 250.202 213.457 247.322C212.497 244.442 212.617 241.562 213.817 238.682L222.817 219.242C224.017 217.322 225.697 216.002 227.857 215.282C230.017 214.322 232.297 214.442 234.697 215.642L235.777 216.002C240.337 218.402 243.577 221.762 245.497 226.082C246.457 230.402 245.977 234.722 244.057 239.042L235.777 253.082C235.297 254.282 234.217 255.242 232.537 255.962C231.097 256.682 229.657 257.042 228.217 257.042C226.297 257.042 224.737 256.802 223.537 256.322L219.217 253.802Z" fill="black"/>
<path d="M390.883 321.122C392.563 322.082 392.923 323.282 391.963 324.722C391.963 324.722 391.363 325.922 390.163 328.322C388.963 330.482 387.283 333.362 385.123 336.962C382.963 340.322 380.323 344.282 377.203 348.842C374.323 353.162 371.203 357.602 367.843 362.162C357.763 376.322 348.523 386.282 340.123 392.042C340.123 392.282 340.003 392.402 339.763 392.402C339.763 392.402 339.523 392.642 339.043 393.122C334.003 396.722 329.323 398.522 325.003 398.522C324.043 398.522 323.443 398.402 323.203 398.162C315.283 397.442 309.163 393.962 304.843 387.722C298.363 378.362 295.963 361.922 297.643 338.402C294.283 344.402 290.443 349.922 286.123 354.962C282.043 360.002 277.003 364.322 271.003 367.922C265.963 371.042 260.203 372.602 253.723 372.602C248.683 372.602 244.243 371.522 240.403 369.362C237.283 367.442 234.283 364.322 231.403 360.002C228.763 355.682 227.563 348.962 227.803 339.842C228.043 329.042 229.843 319.202 233.203 310.322C236.803 301.202 241.123 293.162 246.163 286.202C251.203 279.242 256.603 273.482 262.363 268.922C268.123 264.362 273.523 261.122 278.563 259.202C286.963 255.842 294.283 256.202 300.523 260.282C302.443 261.482 304.003 262.802 305.203 264.242C306.403 265.682 307.603 267.362 308.803 269.282L309.883 264.962C314.203 245.762 319.123 228.002 324.643 211.682C330.403 195.122 336.403 180.482 342.643 167.762C349.123 155.042 355.843 144.362 362.803 135.722C369.763 127.082 376.723 120.962 383.683 117.362C391.603 113.522 399.403 113.042 407.083 115.922C412.603 118.562 415.843 123.242 416.803 129.962C417.763 135.962 417.283 143.162 415.363 151.562C413.683 159.962 410.923 169.202 407.083 179.282C403.243 189.122 398.443 199.442 392.683 210.242C386.923 221.042 380.683 231.602 373.963 241.922C367.243 252.242 360.163 262.202 352.723 271.802C345.523 281.162 338.323 289.442 331.123 296.642C327.043 315.602 324.523 330.962 323.563 342.722C322.843 354.482 322.843 363.722 323.563 370.442C324.283 376.922 325.363 381.482 326.803 384.122C328.243 386.522 329.323 387.962 330.043 388.442C331.243 389.402 332.443 389.762 333.643 389.522C334.843 389.042 335.923 388.562 336.883 388.082C337.123 388.082 337.243 387.962 337.243 387.722C341.803 384.362 346.603 379.802 351.643 374.042C356.683 368.282 361.483 362.282 366.043 356.042C370.603 349.802 374.683 343.682 378.283 337.682C382.123 331.442 385.123 326.282 387.283 322.202C388.243 320.522 389.443 320.162 390.883 321.122ZM341.563 253.442L333.283 286.562C342.883 276.002 352.243 264.122 361.363 250.922C370.723 237.482 379.003 224.042 386.203 210.602C393.403 197.162 399.283 184.322 403.843 172.082C408.643 159.602 411.403 149.042 412.123 140.402C411.883 139.682 411.403 137.882 410.683 135.002C410.203 132.122 408.643 130.322 406.003 129.602C403.603 128.642 400.843 129.002 397.723 130.682C395.083 132.122 391.843 134.882 388.003 138.962C384.403 143.042 380.203 149.642 375.403 158.762C370.603 167.642 365.323 179.762 359.563 195.122C354.043 210.242 348.043 229.682 341.563 253.442ZM298.723 324.722C299.683 318.002 300.763 310.922 301.963 303.482C303.163 295.802 304.723 287.522 306.643 278.642C306.643 278.162 306.403 277.202 305.923 275.762C305.443 275.282 304.843 274.682 304.123 273.962C303.643 273.242 302.563 272.882 300.883 272.882C300.163 272.882 298.363 273.602 295.483 275.042C292.603 276.482 289.123 278.882 285.043 282.242C281.203 285.602 277.123 290.282 272.803 296.282C268.483 302.042 264.523 309.362 260.923 318.242C256.123 329.762 253.843 339.242 254.083 346.682C254.563 354.122 256.363 359.282 259.483 362.162C260.923 363.602 262.483 364.322 264.163 364.322C265.843 364.082 267.283 363.722 268.483 363.242C275.443 358.922 281.203 353.402 285.763 346.682C290.323 339.962 294.643 332.642 298.723 324.722Z" fill="black"/>
<path d="M525.197 291.122C526.397 291.362 527.237 292.442 527.717 294.362C527.717 294.362 527.357 295.802 526.637 298.682C525.917 301.562 524.957 305.402 523.757 310.202C522.797 314.762 521.477 320.042 519.797 326.042C518.117 331.802 516.317 337.682 514.397 343.682C503.357 375.842 492.317 391.922 481.277 391.922H479.837C473.837 391.202 469.037 387.722 465.437 381.482C463.037 377.402 461.117 372.482 459.677 366.722C458.477 361.202 457.637 355.442 457.157 349.442C456.677 343.202 456.437 336.962 456.437 330.722C456.677 324.482 457.037 318.722 457.517 313.442C455.597 318.002 453.677 322.082 451.757 325.682C449.837 329.042 447.917 332.162 445.997 335.042C445.997 335.282 445.877 335.402 445.637 335.402C445.637 335.402 445.637 335.522 445.637 335.762C444.917 336.002 444.437 336.482 444.197 337.202C439.877 343.202 435.437 347.522 430.877 350.162C426.557 352.562 422.357 353.762 418.277 353.762C416.597 353.762 415.277 353.642 414.317 353.402C412.877 352.922 410.477 351.962 407.117 350.522C403.997 349.082 400.997 346.202 398.117 341.882C395.717 337.562 393.797 331.082 392.357 322.442C390.917 313.802 391.997 302.042 395.597 287.162C397.997 278.282 400.877 270.842 404.237 264.842C407.597 258.602 411.077 253.562 414.677 249.722C418.277 245.642 421.757 242.522 425.117 240.362C428.477 238.202 431.477 236.642 434.117 235.682C437.957 234.242 441.557 233.522 444.917 233.522C448.517 233.282 451.637 233.762 454.277 234.962C461.237 238.322 465.797 244.442 467.957 253.322V254.042C470.117 246.122 472.397 238.802 474.797 232.082C477.437 225.362 480.077 219.602 482.717 214.802C484.397 212.642 486.437 211.442 488.837 211.202C491.717 211.202 494.117 212.162 496.037 214.082L501.437 219.122C504.317 221.762 506.117 224.762 506.837 228.122C507.797 231.242 507.677 234.242 506.477 237.122C501.197 249.602 496.397 263.762 492.077 279.602C487.997 295.202 484.997 310.802 483.077 326.402C481.877 335.282 481.157 342.842 480.917 349.082C480.677 355.322 480.677 360.482 480.917 364.562C481.397 368.642 481.877 371.642 482.357 373.562C483.077 375.722 483.797 376.922 484.517 377.162C487.157 378.602 489.437 378.482 491.357 376.802C493.517 375.122 495.077 373.682 496.037 372.482C498.677 367.682 501.317 362.042 503.957 355.562C506.597 348.842 508.997 341.882 511.157 334.682C513.317 327.482 515.357 320.282 517.277 313.082C519.197 305.882 520.757 299.042 521.957 292.562C522.437 291.122 523.517 290.642 525.197 291.122ZM464.717 268.442C464.717 263.402 464.117 258.842 462.917 254.762C462.197 252.842 460.997 251.042 459.317 249.362C457.637 247.682 455.837 246.602 453.917 246.122C452.477 245.882 450.437 246.242 447.797 247.202C445.397 248.162 442.637 250.322 439.517 253.682C436.637 256.802 433.757 261.362 430.877 267.362C427.997 273.362 425.597 281.162 423.677 290.762C421.517 301.082 420.197 309.362 419.717 315.602C419.477 321.602 419.597 326.282 420.077 329.642C420.797 332.762 421.757 334.922 422.957 336.122C424.157 337.082 425.117 337.802 425.837 338.282C427.277 339.242 429.437 339.482 432.317 339.002C435.437 338.282 438.437 336.002 441.317 332.162C448.037 322.562 454.517 308.642 460.757 290.402C461.237 286.562 461.717 282.842 462.197 279.242C462.917 275.642 463.757 272.042 464.717 268.442Z" fill="black"/>
<path d="M533.856 222.842C536.016 214.442 538.776 205.322 542.136 195.482C545.496 185.642 549.096 175.802 552.936 165.962C557.016 156.122 560.976 147.002 564.816 138.602H588.216C586.056 147.722 583.776 157.562 581.376 168.122C578.976 178.442 576.816 188.762 574.896 199.082C572.976 209.162 571.416 218.402 570.216 226.802H536.016L533.856 222.842Z" fill="black"/>
<path d="M711.383 291.482C712.583 292.922 712.703 294.122 711.743 295.082C711.743 295.322 710.783 296.402 708.863 298.322C707.183 300.242 704.543 302.762 700.943 305.882C697.343 308.762 692.663 312.122 686.903 315.962C681.383 319.802 674.543 323.762 666.383 327.842C666.863 330.002 667.223 332.162 667.463 334.322C667.703 336.482 667.943 338.882 668.183 341.522C668.663 354.722 666.983 364.802 663.143 371.762C659.303 378.962 655.343 384.122 651.263 387.242C644.543 392.042 637.343 394.442 629.663 394.442C626.063 394.442 622.943 393.962 620.303 393.002C616.943 392.282 614.303 391.082 612.383 389.402C607.343 385.082 605.543 378.482 606.983 369.602C608.183 361.682 611.903 354.482 618.143 348.002C624.143 341.522 632.063 336.362 641.903 332.522C640.223 327.002 637.943 321.962 635.063 317.402C632.423 312.602 629.663 308.162 626.783 304.082C623.423 299.282 620.303 294.362 617.423 289.322C614.303 284.282 612.143 278.642 610.943 272.402C608.303 256.322 611.543 242.402 620.663 230.642C628.583 220.562 638.183 215.162 649.463 214.442C655.703 213.962 660.983 215.402 665.303 218.762V219.122H665.663C666.383 219.842 667.103 220.562 667.823 221.282C668.783 222.002 669.503 222.842 669.983 223.802C672.623 227.882 674.183 232.562 674.663 237.842C675.383 243.122 674.783 247.922 672.863 252.242C672.143 253.682 670.943 254.162 669.263 253.682C667.823 252.722 667.463 251.522 668.183 250.082C669.623 246.482 670.103 242.522 669.623 238.202C669.143 233.882 667.823 230.162 665.663 227.042C665.183 226.082 663.983 224.882 662.063 223.442C660.863 222.482 659.423 222.242 657.743 222.722C656.303 223.202 655.103 223.682 654.143 224.162C651.503 225.602 648.983 227.642 646.583 230.282C644.183 232.682 642.023 235.562 640.103 238.922C638.423 242.042 636.983 245.642 635.783 249.722C634.823 253.562 634.463 257.402 634.703 261.242C635.183 266.282 636.623 271.082 639.023 275.642C641.663 280.202 644.663 285.002 648.023 290.042C651.143 294.842 654.263 299.882 657.383 305.162C660.503 310.202 663.023 315.962 664.943 322.442C672.623 318.602 679.103 314.882 684.383 311.282C689.903 307.682 694.343 304.442 697.703 301.562C701.063 298.682 703.583 296.402 705.263 294.722C706.943 292.802 707.783 291.842 707.783 291.842C708.743 290.642 709.943 290.522 711.383 291.482ZM630.743 386.882C632.183 386.162 633.743 384.962 635.423 383.282C637.103 381.842 638.543 379.562 639.743 376.442C641.183 373.322 642.263 369.482 642.983 364.922C643.943 360.122 644.303 354.122 644.063 346.922C644.063 343.802 643.703 340.802 642.983 337.922C636.743 340.562 631.583 343.442 627.503 346.562C623.663 349.682 620.663 352.802 618.503 355.922C616.343 359.042 614.903 361.922 614.183 364.562C613.223 367.202 612.623 369.122 612.383 370.322C611.183 377.282 612.383 382.322 615.983 385.442C617.663 386.642 619.823 387.482 622.463 387.962C625.343 388.682 628.103 388.322 630.743 386.882Z" fill="black"/>
<path d="M632.5 309.942C624.861 332.087 620.962 352.363 637.715 374.385" stroke="#9FC049" stroke-width="2" stroke-linejoin="round"/>
<path d="M624.501 191.642C624.501 206.642 632.835 214.975 639.502 221.642C643.394 225.534 646.102 229.663 647.862 233.996" stroke="#9FC049" stroke-width="2" stroke-linejoin="round"/>
<path d="M1108.1 353.815C1114.83 342.242 1108.93 325.179 1112.28 311.642" stroke="#9FC049" stroke-width="2"/>
<path d="M1160.4 299.11C1176.47 308.251 1184.5 321.642 1184.5 321.642C1184.5 321.642 1191.03 333.295 1198.9 344.769" stroke="#9FC049" stroke-width="2"/>
<path d="M1236.03 368.85C1246.24 367.293 1254.5 361.641 1254.5 361.641C1260.31 358.155 1265.31 352.238 1269.5 344.582" stroke="#9FC049" stroke-width="2"/>
<path d="M1284.5 236.642C1286.17 253.309 1286.17 271.087 1284.5 287.938" stroke="#9FC049" stroke-width="2"/>
<path d="M832.501 396.642C834.501 401.642 839.501 396.642 837.501 386.642C836.52 381.739 834.501 371.642 823.388 350.139" stroke="#9FC049" stroke-width="2"/>
<path d="M92.7908 185.541C97.5042 187.21 107.657 185.5 110.561 165.312C104.735 166.786 93.025 172.895 92.7908 185.541Z" fill="#9FC049" stroke="#9FC049" stroke-width="2" stroke-linejoin="round"/>
<path d="M90.4102 202.117C87.5327 204.237 80.2335 205.175 74.0566 191.969C78.3472 191.768 87.6248 193.515 90.4102 202.117Z" fill="#9FC049" stroke="#9FC049" stroke-width="2" stroke-linejoin="round"/>
<path d="M355.495 246.881C350.496 246.77 341.609 241.57 346.054 221.664C350.979 225.108 359.761 234.973 355.495 246.881Z" fill="#9FC049" stroke="#9FC049" stroke-width="2" stroke-linejoin="round"/>
<path d="M382.013 177.409C377.022 177.716 367.732 173.278 370.496 153.07C375.691 156.09 385.268 165.185 382.013 177.409Z" fill="#9FC049" stroke="#9FC049" stroke-width="2" stroke-linejoin="round"/>
<path d="M407.013 106.657C402.022 106.964 392.732 102.526 395.496 82.3182C400.691 85.338 410.268 94.4335 407.013 106.657Z" fill="#9FC049" stroke="#9FC049" stroke-width="2" stroke-linejoin="round"/>
<path d="M624.18 191.896C619.954 194.568 609.675 195.151 602.367 176.109C608.375 176.255 621.148 179.615 624.18 191.896Z" fill="#9FC049" stroke="#9FC049" stroke-width="2" stroke-linejoin="round"/>
<path d="M428.421 69.4794C431.613 73.328 441.207 77.0634 454.048 61.2166C448.29 59.4961 435.104 58.7398 428.421 69.4794Z" fill="#9FC049" stroke="#9FC049" stroke-width="2" stroke-linejoin="round"/>
<path d="M462.301 27.3457C458.417 24.1972 454.574 14.6457 470.275 1.62768C472.061 7.36563 472.965 20.5424 462.301 27.3457Z" fill="#9FC049" stroke="#9FC049" stroke-width="2" stroke-linejoin="round"/>
<path d="M425.568 70.3236C422.064 69.7954 416.285 65.3408 421.201 51.7474C424.352 54.6115 429.638 62.3365 425.568 70.3236Z" fill="#9FC049" stroke="#9FC049" stroke-width="2" stroke-linejoin="round"/>
<path d="M625.117 197.429C628.205 199.167 635.501 199.208 639.984 185.465C635.737 185.786 626.818 188.627 625.117 197.429Z" fill="#9FC049" stroke="#9FC049" stroke-width="2" stroke-linejoin="round"/>
<path d="M365.367 230.912C368.074 233.199 375.233 234.609 382.216 221.953C377.984 221.47 368.691 222.587 365.367 230.912Z" fill="#9FC049" stroke="#9FC049" stroke-width="2" stroke-linejoin="round"/>
<path d="M462.831 28.3204C464.693 31.3353 471.06 34.9001 481.63 25.0401C477.758 23.2665 468.577 21.4396 462.831 28.3204Z" fill="#9FC049" stroke="#9FC049" stroke-width="2" stroke-linejoin="round"/>
<path d="M370.77 213.891C368.328 213.87 363.953 211.392 365.989 201.646C368.417 203.294 372.773 208.05 370.77 213.891Z" fill="#9FC049" stroke="#9FC049" stroke-width="1.07697" stroke-linejoin="round"/>
<path d="M409.836 101.42C411.731 102.96 416.682 103.838 421.323 95.0289C418.401 94.7517 412.014 95.6418 409.836 101.42Z" fill="#9FC049" stroke="#9FC049" stroke-width="1.07697" stroke-linejoin="round"/>
<path d="M443.508 44.8957C441.15 44.2597 437.542 40.7584 441.971 31.8409C443.905 34.0479 446.92 39.7487 443.508 44.8957Z" fill="#9FC049" stroke="#9FC049" stroke-width="1.07697" stroke-linejoin="round"/>
<path d="M649.504 243.358C651.817 244.14 656.763 243.236 658.039 233.361C655.204 234.121 649.529 237.183 649.504 243.358Z" fill="#9FC049" stroke="#9FC049" stroke-width="1.07697" stroke-linejoin="round"/>
<path d="M895.82 115.079C899.048 114.944 904.724 111.473 901.602 98.6685C898.463 100.956 892.914 107.44 895.82 115.079Z" fill="#9FC049" stroke="#9FC049" stroke-width="1.29237"/>
<path d="M908.517 140.637C906.832 143.499 900.937 146.965 890.838 137.936C894.431 136.197 902.997 134.303 908.517 140.637Z" fill="#9FC049" stroke="#9FC049" stroke-width="2"/>
<path d="M884.044 96.6421C894.241 111.419 901.847 124.678 907.265 136.642" stroke="#9FC049" stroke-width="2"/>
<path d="M1284.43 236.247C1281.68 237.223 1275.75 236.229 1274.05 224.447C1277.45 225.305 1284.29 228.866 1284.43 236.247Z" fill="#9FC049" stroke="#9FC049" stroke-width="2"/>
<path d="M1110.88 349.805C1113.47 350.988 1119.33 350.524 1121.98 339.195C1118.6 339.742 1111.64 342.629 1110.88 349.805Z" fill="#9FC049" stroke="#9FC049" stroke-width="2"/>
<path d="M1164.74 299.54C1165.96 302.121 1170.73 305.552 1180.08 298.628C1177.14 296.857 1169.96 294.56 1164.74 299.54Z" fill="#9FC049" stroke="#9FC049" stroke-width="2"/>
<path d="M1215.05 362.773C1216.82 365.01 1222.24 367.265 1229.77 358.395C1226.51 357.338 1219 356.735 1215.05 362.773Z" fill="#9FC049" stroke="#9FC049" stroke-width="2"/>
<path d="M1259.1 358.595C1260.62 361.004 1265.78 363.813 1274.2 355.776C1271.06 354.385 1263.66 353.002 1259.1 358.595Z" fill="#9FC049" stroke="#9FC049" stroke-width="2"/>
<path d="M1190.07 331.904C1187.54 333.22 1184.3 338.12 1191.59 347.19C1193.24 344.187 1195.25 336.926 1190.07 331.904Z" fill="#9FC049" stroke="#9FC049" stroke-width="2"/>
<path d="M1285.05 235.473C1287.78 236.288 1293.52 235.019 1294.59 223.433C1291.31 224.441 1284.81 228.261 1285.05 235.473Z" fill="#9FC049" stroke="#9FC049" stroke-width="2"/>
<path d="M1276.55 325.914C1273.7 326.07 1268.42 323.503 1270.07 311.986C1273.02 313.728 1278.45 318.953 1276.55 325.914Z" fill="#9FC049" stroke="#9FC049" stroke-width="2"/>
<path d="M1286.12 281.112C1288.04 281.675 1292.06 280.77 1292.77 272.643C1290.48 273.359 1285.94 276.056 1286.12 281.112Z" fill="#9FC049" stroke="#9FC049" stroke-width="2"/>
<path d="M373.9 206.641C373.9 206.641 404.501 111.641 458.9 101.641C479.501 96.6419 474.501 126.643 459.501 126.642C454.501 126.642 454.501 111.642 464.501 116.642" stroke="#9FC049" stroke-width="2" stroke-linejoin="round"/>
<path d="M82.1841 222.516C92.64 203.767 97.3769 182.707 87.4849 156.642" stroke="#9FC049" stroke-width="2" stroke-linejoin="round"/>
</svg>
