<svg width="200" height="158" viewBox="0 0 200 158" fill="none" xmlns="http://www.w3.org/2000/svg">
<path d="M104.824 60.1566C112.804 60.1566 119.273 53.6876 119.273 45.7077C119.273 37.7278 112.804 31.2588 104.824 31.2588C96.844 31.2588 90.375 37.7278 90.375 45.7077C90.375 53.6876 96.844 60.1566 104.824 60.1566Z" fill="#5C3822"/>
<path d="M99.7093 42.6995C99.7091 42.6816 99.709 42.6637 99.709 42.6459C99.709 41.6373 100.007 40.6512 100.566 39.8115C101.125 38.9719 101.919 38.3162 102.85 37.9268C103.78 37.5375 104.805 37.4318 105.795 37.6232C106.786 37.8146 107.697 38.2945 108.416 39.0025C109.134 39.7105 109.627 40.615 109.833 41.6024C110.038 42.5898 109.948 43.616 109.572 44.552C109.196 45.488 108.552 46.292 107.72 46.8629C106.889 47.4339 105.907 47.7463 104.899 47.7609V52.4061" stroke="#E7E7E7" stroke-width="1.23077" stroke-linecap="round" stroke-linejoin="round"/>
<path d="M129.129 35.9814H139.068" stroke="#5C3822" stroke-width="0.923077" stroke-miterlimit="10" stroke-linecap="round"/>
<path d="M129.129 38.8467H139.068" stroke="#5C3822" stroke-width="0.923077" stroke-miterlimit="10" stroke-linecap="round"/>
<path d="M129.129 41.7109H139.068" stroke="#5C3822" stroke-width="0.923077" stroke-miterlimit="10" stroke-linecap="round"/>
<path d="M36.6621 90.3887H46.6015" stroke="#5C3822" stroke-width="0.923077" stroke-miterlimit="10" stroke-linecap="round"/>
<path d="M36.6621 93.2529H46.6015" stroke="#5C3822" stroke-width="0.923077" stroke-miterlimit="10" stroke-linecap="round"/>
<path d="M36.6621 96.1182H46.6015" stroke="#5C3822" stroke-width="0.923077" stroke-miterlimit="10" stroke-linecap="round"/>
<path d="M148.197 110.817H158.137" stroke="#5C3822" stroke-width="0.923077" stroke-miterlimit="10" stroke-linecap="round"/>
<path d="M148.197 113.683H158.137" stroke="#5C3822" stroke-width="0.923077" stroke-miterlimit="10" stroke-linecap="round"/>
<path d="M148.197 116.547H158.137" stroke="#5C3822" stroke-width="0.923077" stroke-miterlimit="10" stroke-linecap="round"/>
<path d="M160.178 96.7085C162.524 96.7085 164.426 94.8065 164.426 92.4602C164.426 90.1139 162.524 88.2119 160.178 88.2119C157.832 88.2119 155.93 90.1139 155.93 92.4602C155.93 94.8065 157.832 96.7085 160.178 96.7085Z" fill="#7C7C7C"/>
<path d="M148.966 97.7298C150.183 97.7298 151.169 96.7435 151.169 95.527C151.169 94.3104 150.183 93.3242 148.966 93.3242C147.75 93.3242 146.764 94.3104 146.764 95.527C146.764 96.7435 147.75 97.7298 148.966 97.7298Z" fill="#7C7C7C"/>
<path d="M154.559 85.2121C156.297 85.2121 157.706 83.8031 157.706 82.065C157.706 80.327 156.297 78.918 154.559 78.918C152.821 78.918 151.412 80.327 151.412 82.065C151.412 83.8031 152.821 85.2121 154.559 85.2121Z" fill="#7C7C7C"/>
<path d="M63.5059 124.954C66.2976 124.954 68.5607 122.691 68.5607 119.899C68.5607 117.108 66.2976 114.845 63.5059 114.845C60.7143 114.845 58.4512 117.108 58.4512 119.899C58.4512 122.691 60.7143 124.954 63.5059 124.954Z" fill="#7C7C7C"/>
<path d="M53.8458 118.933C55.2999 118.933 56.4787 117.754 56.4787 116.3C56.4787 114.846 55.2999 113.667 53.8458 113.667C52.3917 113.667 51.2129 114.846 51.2129 116.3C51.2129 117.754 52.3917 118.933 53.8458 118.933Z" fill="#7C7C7C"/>
<path d="M56.2649 108.869C57.1037 108.869 57.7836 108.189 57.7836 107.35C57.7836 106.511 57.1037 105.831 56.2649 105.831C55.4261 105.831 54.7461 106.511 54.7461 107.35C54.7461 108.189 55.4261 108.869 56.2649 108.869Z" fill="#7C7C7C"/>
<path d="M64.6722 112.065C66.683 112.065 68.3131 110.435 68.3131 108.424C68.3131 106.413 66.683 104.783 64.6722 104.783C62.6613 104.783 61.0312 106.413 61.0312 108.424C61.0312 110.435 62.6613 112.065 64.6722 112.065Z" fill="#7C7C7C"/>
<path d="M67.2071 49.0734C69.9988 49.0734 72.2619 46.8103 72.2619 44.0186C72.2619 41.227 69.9988 38.9639 67.2071 38.9639C64.4154 38.9639 62.1523 41.227 62.1523 44.0186C62.1523 46.8103 64.4154 49.0734 67.2071 49.0734Z" fill="#7C7C7C"/>
<path d="M67.4122 36.3449C68.8663 36.3449 70.0451 35.1661 70.0451 33.712C70.0451 32.2579 68.8663 31.0791 67.4122 31.0791C65.9581 31.0791 64.7793 32.2579 64.7793 33.712C64.7793 35.1661 65.9581 36.3449 67.4122 36.3449Z" fill="#7C7C7C"/>
<path d="M84.9487 37.5292C86.2072 37.5292 87.2275 36.509 87.2275 35.2505C87.2275 33.9919 86.2072 32.9717 84.9487 32.9717C83.6902 32.9717 82.6699 33.9919 82.6699 35.2505C82.6699 36.509 83.6902 37.5292 84.9487 37.5292Z" fill="#7C7C7C"/>
<path d="M76.6594 34.5551C77.4982 34.5551 78.1782 33.8751 78.1782 33.0363C78.1782 32.1976 77.4982 31.5176 76.6594 31.5176C75.8206 31.5176 75.1406 32.1976 75.1406 33.0363C75.1406 33.8751 75.8206 34.5551 76.6594 34.5551Z" fill="#7C7C7C"/>
<path d="M78.4241 44.9674C80.435 44.9674 82.065 43.3373 82.065 41.3265C82.065 39.3156 80.435 37.6855 78.4241 37.6855C76.4133 37.6855 74.7832 39.3156 74.7832 41.3265C74.7832 43.3373 76.4133 44.9674 78.4241 44.9674Z" fill="#7C7C7C"/>
<path d="M147.955 71.7674H62.3443L59.5527 64.6904H147.956C148.065 64.6904 148.174 64.7121 148.276 64.7542C148.378 64.7963 148.47 64.858 148.548 64.9357C148.625 65.0135 148.687 65.1058 148.729 65.2074C148.771 65.309 148.793 65.4179 148.793 65.5279V70.93C148.793 71.04 148.771 71.1489 148.729 71.2505C148.687 71.3521 148.625 71.4444 148.548 71.5222C148.47 71.5999 148.378 71.6616 148.276 71.7037C148.174 71.7458 148.065 71.7674 147.955 71.7674Z" fill="#5C3822"/>
<path d="M135.485 108.951H77.2704C76.9863 108.951 76.709 108.864 76.4755 108.703C76.242 108.541 76.0635 108.312 75.9636 108.046L62.3457 71.7676H144.976L136.846 107.862C136.777 108.171 136.604 108.447 136.356 108.645C136.109 108.843 135.801 108.951 135.485 108.951Z" fill="#E7E7E7"/>
<path d="M140.789 90.36C134.833 90.742 128.878 90.9418 122.923 91.0776C119.945 91.1626 116.967 91.1815 113.99 91.2316L105.057 91.2826C99.1011 91.288 93.1458 91.2206 87.1904 91.0803C81.235 90.9451 75.2796 90.7443 69.3242 90.36C75.2796 89.9757 81.235 89.7749 87.1904 89.6397C93.1458 89.506 99.1011 89.4386 105.057 89.4375L113.99 89.4885C116.967 89.5385 119.945 89.5574 122.923 89.6425C128.878 89.7782 134.833 89.9781 140.789 90.36Z" fill="#5C3822"/>
<path d="M129.139 71.7676C128.8 75.0124 128.281 78.2169 127.709 81.4093C127.129 84.6 126.482 87.7755 125.768 90.9359C125.057 94.0972 124.281 97.2437 123.44 100.375C123.015 101.94 122.575 103.502 122.106 105.057C121.863 105.833 121.632 106.611 121.379 107.384L121.185 107.972C121.109 108.188 120.984 108.383 120.821 108.544C120.669 108.695 120.484 108.81 120.281 108.881C120.078 108.951 119.861 108.975 119.648 108.951C119.841 108.928 120.026 108.864 120.192 108.763C120.358 108.661 120.5 108.525 120.608 108.364C120.709 108.215 120.775 108.046 120.803 107.868L120.88 107.272C120.984 106.465 121.108 105.663 121.222 104.858C121.464 103.252 121.736 101.652 122.023 100.056C122.603 96.8658 123.251 93.6904 123.967 90.5304C124.68 87.3697 125.457 84.2234 126.297 81.0914C127.149 77.962 128.054 74.8446 129.139 71.7676ZM95.8719 108.951C95.6497 108.975 95.4248 108.947 95.2153 108.869C95.0057 108.791 94.8171 108.666 94.6645 108.502C94.5147 108.33 94.3945 108.135 94.3088 107.923L94.033 107.352C93.6654 106.59 93.3189 105.82 92.9609 105.055C92.26 103.518 91.5876 101.97 90.9292 100.418C89.6181 97.3102 88.3715 94.1784 87.1894 91.0225C86.0037 87.8679 84.8808 84.6897 83.8208 81.4879C82.7698 78.2828 81.7717 75.0578 80.9473 71.7676C82.4915 74.7876 83.8621 77.8727 85.1798 80.9778C86.4908 84.0854 87.7366 87.2174 88.9173 90.3739C90.1006 93.5294 91.2227 96.7079 92.2836 99.9093C92.8095 101.512 93.3215 103.119 93.805 104.738C94.0391 105.55 94.2848 106.357 94.5094 107.173L94.6777 107.785C94.7161 107.977 94.7854 108.161 94.8828 108.331C94.9905 108.502 95.1354 108.647 95.3066 108.754C95.4778 108.861 95.6711 108.929 95.8719 108.951Z" fill="#5C3822"/>
<path d="M91.7241 137.478C94.9092 137.478 97.4912 134.896 97.4912 131.71C97.4912 128.525 94.9092 125.943 91.7241 125.943C88.539 125.943 85.957 128.525 85.957 131.71C85.957 134.896 88.539 137.478 91.7241 137.478Z" fill="#5C3822"/>
<path d="M124.992 137.478C128.177 137.478 130.759 134.896 130.759 131.71C130.759 128.525 128.177 125.943 124.992 125.943C121.807 125.943 119.225 128.525 119.225 131.71C119.225 134.896 121.807 137.478 124.992 137.478Z" fill="#5C3822"/>
<path d="M105.566 71.7676C106.132 74.8435 106.515 77.9303 106.842 81.0204C107.162 84.111 107.413 87.2057 107.595 90.3044C107.781 93.403 107.9 96.5055 107.953 99.612C107.995 102.719 107.981 105.83 107.782 108.951C107.213 105.875 106.83 102.788 106.503 99.6983C106.184 96.6077 105.934 93.513 105.753 90.4142C105.569 87.3155 105.451 84.2129 105.398 81.1065C105.356 77.9993 105.37 74.8889 105.566 71.7676Z" fill="#5C3822"/>
<path d="M134.751 123.015H82.5802C82.3934 123.015 82.2111 122.959 82.0572 122.853C81.9033 122.747 81.7852 122.597 81.7183 122.423L51.5035 43.6606H35.4992C35.2544 43.6606 35.0196 43.5634 34.8465 43.3902C34.6734 43.2171 34.5762 42.9823 34.5762 42.7375C34.5762 42.4927 34.6734 42.2579 34.8465 42.0848C35.0196 41.9117 35.2544 41.8145 35.4992 41.8145H52.138C52.3247 41.8145 52.5071 41.8711 52.6609 41.9769C52.8148 42.0827 52.933 42.2327 52.9998 42.407L83.2147 121.169H134.751C134.995 121.169 135.23 121.267 135.403 121.44C135.576 121.613 135.674 121.848 135.674 122.092C135.674 122.337 135.576 122.572 135.403 122.745C135.23 122.918 134.995 123.015 134.751 123.015Z" fill="#5C3822"/>
<path d="M43.5263 40.0762H32.5724C32.2325 40.0762 31.957 40.3517 31.957 40.6916V45.11C31.957 45.4499 32.2325 45.7254 32.5724 45.7254H43.5263C43.8661 45.7254 44.1416 45.4499 44.1416 45.11V40.6916C44.1416 40.3517 43.8661 40.0762 43.5263 40.0762Z" fill="#5C3822"/>
<path d="M104.823 56.0922C105.282 56.0922 105.654 55.7203 105.654 55.2614C105.654 54.8026 105.282 54.4307 104.823 54.4307C104.364 54.4307 103.992 54.8026 103.992 55.2614C103.992 55.7203 104.364 56.0922 104.823 56.0922Z" fill="#E7E7E7"/>
</svg>
