<svg width="27" height="27" viewBox="0 0 27 27" fill="none" xmlns="http://www.w3.org/2000/svg">
<rect y="0.13623" width="26.136" height="26.14" rx="13.068" fill="#5C3822"/>
<path d="M16.94 11.2705L13.068 13.6905L9.19603 11.2705V10.3025L13.068 12.7225L16.94 10.3025M16.94 9.33447H9.19603C8.65879 9.33447 8.22803 9.76523 8.22803 10.3025V16.1105C8.22803 16.3672 8.33001 16.6134 8.51155 16.795C8.69308 16.9765 8.9393 17.0785 9.19603 17.0785H16.94C17.1968 17.0785 17.443 16.9765 17.6245 16.795C17.806 16.6134 17.908 16.3672 17.908 16.1105V10.3025C17.908 10.0457 17.806 9.79953 17.6245 9.61799C17.443 9.43646 17.1968 9.33447 16.94 9.33447Z" fill="white"/>
</svg>
