<svg width="78" height="12" viewBox="0 0 78 12" fill="none" xmlns="http://www.w3.org/2000/svg">
<line x1="1" y1="6" x2="78" y2="6.00001" stroke="#909F8C"/>
<line x1="74.3119" y1="6.33537" x2="77.8119" y2="2.33537" stroke="#909F8C" stroke-width="0.5"/>
<line x1="71.3119" y1="6.33537" x2="74.8119" y2="2.33537" stroke="#909F8C" stroke-width="0.5"/>
<line x1="68.3119" y1="6.33537" x2="71.8119" y2="2.33537" stroke="#909F8C" stroke-width="0.5"/>
<line x1="65.3119" y1="6.33537" x2="68.8119" y2="2.33537" stroke="#909F8C" stroke-width="0.5"/>
<line y1="-0.25" x2="5.31507" y2="-0.25" transform="matrix(0.658505 0.752577 0.752577 -0.658505 74.5 5.5)" stroke="#909F8C" stroke-width="0.5"/>
<line y1="-0.25" x2="5.31507" y2="-0.25" transform="matrix(0.658505 0.752577 0.752577 -0.658505 71.5 5.5)" stroke="#909F8C" stroke-width="0.5"/>
<line y1="-0.25" x2="5.31507" y2="-0.25" transform="matrix(0.658505 0.752577 0.752577 -0.658505 68.5 5.5)" stroke="#909F8C" stroke-width="0.5"/>
<line y1="-0.25" x2="5.31507" y2="-0.25" transform="matrix(0.658505 0.752577 0.752577 -0.658505 65.5 5.5)" stroke="#909F8C" stroke-width="0.5"/>
<path d="M0 6L7 3.5L10.2083 6L7 8.5L0 6Z" fill="#909F8C"/>
</svg>
