<svg width="27" height="27" viewBox="0 0 27 27" fill="none" xmlns="http://www.w3.org/2000/svg">
<rect width="26.136" height="26.136" rx="13.068" fill="#5C3822"/>
<path d="M13.0681 12.826C12.7471 12.826 12.4394 12.6985 12.2125 12.4716C11.9855 12.2447 11.8581 11.9369 11.8581 11.616C11.8581 11.2951 11.9855 10.9873 12.2125 10.7604C12.4394 10.5335 12.7471 10.406 13.0681 10.406C13.389 10.406 13.6967 10.5335 13.9237 10.7604C14.1506 10.9873 14.2781 11.2951 14.2781 11.616C14.2781 11.7749 14.2468 11.9323 14.1859 12.0791C14.1251 12.2259 14.036 12.3593 13.9237 12.4716C13.8113 12.584 13.6779 12.6731 13.5311 12.7339C13.3843 12.7947 13.227 12.826 13.0681 12.826ZM13.0681 8.22803C12.1695 8.22803 11.3077 8.58498 10.6724 9.22035C10.037 9.85572 9.68005 10.7175 9.68005 11.616C9.68005 14.157 13.0681 17.908 13.0681 17.908C13.0681 17.908 16.4561 14.157 16.4561 11.616C16.4561 10.7175 16.0991 9.85572 15.4637 9.22035C14.8284 8.58498 13.9666 8.22803 13.0681 8.22803Z" fill="white"/>
</svg>
