<svg width="25" height="24" viewBox="0 0 25 24" fill="none" xmlns="http://www.w3.org/2000/svg">
<path d="M4.83301 20C4.28301 20 3.81217 19.8042 3.42051 19.4125C3.02884 19.0208 2.83301 18.55 2.83301 18V6C2.83301 5.45 3.02884 4.97917 3.42051 4.5875C3.81217 4.19583 4.28301 4 4.83301 4H20.833C21.383 4 21.8538 4.19583 22.2455 4.5875C22.6372 4.97917 22.833 5.45 22.833 6V18C22.833 18.55 22.6372 19.0208 22.2455 19.4125C21.8538 19.8042 21.383 20 20.833 20H4.83301ZM12.833 13L4.83301 8V18H20.833V8L12.833 13ZM12.833 11L20.833 6H4.83301L12.833 11ZM4.83301 8V6V18V8Z" fill="#5D5C5C"/>
</svg>
