<svg width="150" height="150" viewBox="0 0 150 150" fill="none" xmlns="http://www.w3.org/2000/svg">
<rect width="150" height="150" fill="white"/>
<path d="M50.6205 57.8435C50.0833 58.4723 48.4881 59.0668 46.4043 56.4166C47.3604 56.1457 49.5421 56.0519 50.6205 57.8435Z" fill="black" stroke="black" stroke-width="1.07697" stroke-linejoin="round"/>
<path d="M40.8429 42.6443C40.1903 44.2063 37.4533 46.3656 31.7266 42.5052C33.4207 41.3783 37.6158 39.8282 40.8429 42.6443Z" fill="black" stroke="black" stroke-width="2" stroke-linejoin="round"/>
<path d="M82.6602 92.664C88.3936 88.5157 94.8993 84.595 99.434 79.3785M101.974 51.0814C99.9294 46.2688 96.8122 40.8207 92.378 34.6016" stroke="black" stroke-width="2"/>
<path d="M46.8059 50.3568C48.4735 50.0639 51.1824 47.8698 48.6775 41.4336C47.2051 42.8381 44.7694 46.5888 46.8059 50.3568Z" fill="black" stroke="black" stroke-width="2" stroke-linejoin="round"/>
<path d="M50.2856 57.8304C51.5013 57.7931 53.652 56.5105 52.5296 51.6807C51.339 52.5282 49.2232 54.9445 50.2856 57.8304Z" fill="black" stroke="black" stroke-width="1.07697" stroke-linejoin="round"/>
<path d="M34.9193 35.4986C36.0747 35.0992 37.7552 33.2254 35.2339 28.9258C34.3446 30.0951 33.0367 33.0467 34.9193 35.4986Z" fill="black" stroke="black" stroke-width="1.29237" stroke-linejoin="round"/>
<path d="M30.3866 122.639C13.839 91.1995 83.0055 82.4015 33.9862 34.6016" stroke="black" stroke-width="2" stroke-linejoin="round"/>
<path d="M93.5708 10.9004C83.5668 21.0585 90.0614 31.2099 93.5708 36.2957C97.0233 41.2992 99.5988 45.7887 101.433 49.8398C121.078 93.2166 55.7958 86.3376 73.0312 122.131" stroke="black" stroke-width="2"/>
<path d="M74.7723 126.137C73.4371 127.178 69.9928 127.716 66.8965 121.543C68.9258 121.392 73.3417 122.1 74.7723 126.137Z" fill="black" stroke="black" stroke-width="2"/>
<path d="M71.4082 117.9C72.4843 118.098 74.6189 117.377 74.5478 112.915C73.3403 113.435 71.0215 115.16 71.4082 117.9Z" fill="black" stroke="black" stroke-width="1.29237"/>
<path d="M103.986 73.1015C105.243 73.9436 108.347 74.203 110.71 68.5029C108.892 68.4985 105.002 69.4121 103.986 73.1015Z" fill="black" stroke="black" stroke-width="1.29237"/>
<path d="M88.834 27.1523C90.2382 27.7154 93.3284 27.3251 94.458 21.2588C92.6786 21.6316 89.0625 23.3322 88.834 27.1523Z" fill="black" stroke="black" stroke-width="1.29237"/>
<path d="M71.5156 104.368C72.2721 105.158 74.4243 105.824 76.9802 102.166C75.6965 101.88 72.8071 101.92 71.5156 104.368Z" fill="black" stroke="black" stroke-width="1.29237"/>
<path d="M92.5921 35.0542C92.0216 36.0232 90.0255 37.197 86.6055 34.1396C87.8221 33.5509 90.7227 32.9097 92.5921 35.0542Z" fill="black" stroke="black" stroke-width="2"/>
<path d="M69.8846 109.923C68.3971 110.731 64.9107 110.699 62.8672 104.102C64.8938 104.285 69.1346 105.706 69.8846 109.923Z" fill="black" stroke="black" stroke-width="2"/>
<path d="M88.4873 19.1194C87.5216 19.1375 85.7652 18.2044 86.4654 14.3271C87.4434 14.9528 89.2167 16.7872 88.4873 19.1194Z" fill="black" stroke="black" stroke-width="2"/>
<path d="M75.6204 98.0273C74.0824 97.3199 72.0213 94.5082 76.0816 88.9219C77.1482 90.6545 78.5491 94.9016 75.6204 98.0273Z" fill="black" stroke="black" stroke-width="2"/>
<path d="M50.0098 75.4765C50.6353 76.0172 52.3017 76.3657 53.9638 73.4327C52.9779 73.3084 50.8069 73.5434 50.0098 75.4765Z" fill="black" stroke="black" stroke-width="1.07697" stroke-linejoin="round"/>
<path d="M40.6279 41.1907C41.4538 41.1497 42.8994 40.2504 42.0744 36.9814C41.2759 37.5727 39.8687 39.2427 40.6279 41.1907Z" fill="black" stroke="black" stroke-width="1.07697" stroke-linejoin="round"/>
<path d="M34.5373 35.1588C34.1269 35.8767 32.6707 36.7588 30.1289 34.544C31.0176 34.0995 33.1435 33.6002 34.5373 35.1588Z" fill="black" stroke="black" stroke-width="1.07697" stroke-linejoin="round"/>
<path d="M27.8269 109.482C27.0131 109.628 25.4017 109.079 25.4668 105.708C26.3783 106.104 28.1264 107.413 27.8269 109.482Z" fill="black" stroke="black" stroke-width="1.07697" stroke-linejoin="round"/>
<path d="M32.655 99.4073C31.0352 99.4872 28.0397 98.0116 29.0154 91.4688C30.6885 92.4686 33.7588 95.4558 32.655 99.4073Z" fill="black" stroke="black" stroke-width="1.29237" stroke-linejoin="round"/>
<path d="M28.1406 109.247C29.0663 109.83 31.3156 109.954 32.9077 105.785C31.5933 105.819 28.7997 106.559 28.1406 109.247Z" fill="black" stroke="black" stroke-width="1.29237" stroke-linejoin="round"/>
<path d="M28.8756 119.272C27.5405 120.313 24.0961 120.852 21 114.679C23.0292 114.528 27.4452 115.235 28.8756 119.272Z" fill="black" stroke="black" stroke-width="2" stroke-linejoin="round"/>
<path d="M44.793 84.8441C45.9901 86.0414 49.3422 86.999 53.1732 81.2526C51.1779 80.8537 46.7084 81.0132 44.793 84.8441Z" fill="black" stroke="black" stroke-width="2" stroke-linejoin="round"/>
<path d="M90.5957 14.2868C91.9038 15.4499 95.4216 16.2352 99.0275 10.0721C96.944 9.78117 92.3406 10.2168 90.5957 14.2868Z" fill="black" stroke="black" stroke-width="2"/>
<path d="M99.46 78.8567C98.39 78.7195 96.6005 77.4027 98.0047 73.2314C98.9836 74.082 100.645 76.3977 99.46 78.8567Z" fill="black" stroke="black" stroke-width="1.2746"/>
<path d="M104.572 67.0668C103.503 67.2083 101.436 66.3936 101.725 62.002C102.889 62.5735 105.088 64.3861 104.572 67.0668Z" fill="black" stroke="black" stroke-width="1.2746"/>
<path d="M121.096 38.7206C123.534 39.8583 125.362 41.8493 126.581 44.6936C127.8 47.4566 128.572 50.504 128.897 53.8359C129.466 60.6621 127.678 69.7232 123.534 81.019C118.658 94.1027 113.213 101.945 107.199 104.545C105.98 105.114 104.598 105.398 103.054 105.398C101.591 105.398 100.251 105.114 99.0316 104.545C97.7313 104.058 96.7561 103.326 96.106 102.351C95.5371 101.376 95.1308 100.441 94.887 99.5474C94.6432 98.5722 94.5213 97.7189 94.5213 96.9876C94.5213 96.2562 94.5213 95.8499 94.5213 95.7686C94.6838 95.1997 95.0495 94.9153 95.6184 94.9153C96.2685 95.0778 96.5123 95.4029 96.3498 95.8905V96.9876C96.3498 97.3939 96.3904 97.8408 96.4717 98.3284C96.5529 98.7348 96.6748 99.1411 96.8374 99.5474C96.9186 99.7099 97.1624 99.9537 97.5688 100.279C97.9751 100.604 98.6659 100.766 99.6411 100.766C101.673 100.766 103.501 100.076 105.127 98.6941C106.833 97.2314 108.377 95.3623 109.759 93.0868C111.222 90.7302 112.563 88.0484 113.782 85.0416C115.001 81.9536 116.179 78.7436 117.317 75.4117C120.567 66.2288 121.949 57.8991 121.461 50.4228C121.461 49.6914 121.38 48.8381 121.218 47.8629C121.055 46.8065 120.852 45.7907 120.608 44.8155C120.364 43.8403 120.08 42.987 119.755 42.2556C119.43 41.5243 119.023 41.0367 118.536 40.7929C118.211 40.5491 117.845 40.5085 117.439 40.671C115.976 41.4024 114.31 42.7026 112.441 44.5717C110.653 46.3595 108.865 48.5537 107.077 51.1542C105.289 53.7546 103.542 56.6395 101.835 59.8089C100.129 62.8969 98.6659 66.0256 97.4469 69.195C95.9841 77.9716 94.44 86.0574 92.8147 93.4525C91.1893 100.848 89.6452 107.308 88.1824 112.834C86.8009 118.36 85.5819 122.87 84.5254 126.365C83.5502 129.778 82.9 131.972 82.575 132.947C82.1686 134.329 81.4779 135.466 80.5027 136.36C79.2024 137.498 77.6177 138.433 75.7486 139.164C75.586 139.245 75.3422 139.286 75.0172 139.286C74.367 139.286 73.8794 139.083 73.5543 138.676C72.9855 138.108 72.8229 137.336 73.0667 136.36C74.367 133.435 75.7079 129.494 77.0895 124.536C78.471 119.579 79.8119 114.134 81.1122 108.202C82.4937 102.27 83.794 96.053 85.013 89.5518C86.3133 83.0506 87.451 76.712 88.4262 70.5358C89.4827 64.3597 90.3766 58.5899 91.108 53.2264C91.8394 47.8629 92.3677 43.3527 92.6927 39.6958C92.6927 38.6394 93.1803 37.908 94.1555 37.5017C94.9682 37.1766 95.7809 37.2579 96.5936 37.7454L98.7878 39.452C99.6817 40.1021 100.332 40.9148 100.738 41.89C101.145 42.8651 101.266 43.9216 101.104 45.0593L98.544 62.1249C99.8443 59.5244 101.226 57.0459 102.689 54.6892C104.151 52.2512 105.614 50.0571 107.077 48.1067C108.621 46.0751 110.125 44.3279 111.587 42.8651C113.131 41.3211 114.554 40.1834 115.854 39.452L116.707 38.9644C116.788 38.9644 116.829 38.9644 116.829 38.9644C116.91 38.8832 116.992 38.8425 117.073 38.8425C118.779 38.1924 120.12 38.1518 121.096 38.7206Z" fill="#9FC049"/>
<path d="M84.3708 112.304C84.9397 112.629 85.0616 113.035 84.7365 113.523C83.2737 116.205 81.7297 118.886 80.1043 121.568C78.479 124.169 76.8536 126.606 75.2283 128.882C73.6029 131.157 71.9776 133.148 70.3523 134.855C68.8082 136.561 67.3047 137.78 65.8419 138.512H65.5981C64.948 138.999 63.6883 139.243 61.8192 139.243C60.3564 139.243 59.0155 138.999 57.7965 138.512C55.8461 137.862 54.5458 136.683 53.8958 134.977C53.3269 133.433 53.0019 131.767 52.9206 129.979C52.8393 128.191 53.0425 125.956 53.5301 123.275C54.0177 120.593 54.749 117.302 55.7242 113.401C56.6994 109.419 57.9184 104.502 59.3812 98.6513L59.7469 97.5542C62.835 85.6896 64.7855 76.2628 65.5981 69.2741C66.4108 62.2853 66.4921 57.897 65.8419 56.1091C64.948 54.0775 64.0541 52.8992 63.1601 52.5741C62.6725 52.3303 61.9817 52.4116 61.0878 52.8179H60.9659C59.0155 53.7931 57.1463 55.2965 55.3585 57.3281C53.652 59.3597 52.0673 61.7164 50.6045 64.3982C49.1417 66.9986 47.882 69.7616 46.8256 72.6872C45.7691 75.5315 44.9971 78.2945 44.5094 80.9762C42.8028 93.7348 41.1369 103.608 39.5115 110.597C37.8862 117.505 36.8703 121.771 36.464 123.396C36.0577 124.778 35.4075 125.794 34.5136 126.444C33.9447 127.013 33.254 127.541 32.4413 128.029C31.7099 128.435 30.8972 128.841 30.0033 129.248C29.8407 129.329 29.5563 129.369 29.15 129.369C28.5811 129.369 28.0935 129.166 27.6872 128.76C27.1183 128.191 26.9558 127.5 27.1996 126.688C28.256 124.006 29.2719 120.593 30.2471 116.448C31.3035 112.304 32.2381 107.794 33.0508 102.918C33.9447 97.9606 34.7168 92.8409 35.3669 87.5587C36.0983 82.1952 36.7078 76.9942 37.1954 71.9558C37.7643 66.8361 38.2112 62.0415 38.5363 57.5719C38.8614 53.0211 39.0646 49.1204 39.1458 45.8698C39.3084 44.8946 39.7553 44.2445 40.4867 43.9194C40.8118 43.6756 41.2181 43.5537 41.7057 43.5537C42.1121 43.5537 42.559 43.6756 43.0466 43.9194L45.3628 45.2603C46.2567 45.8291 46.9475 46.5605 47.4351 47.4544C47.9227 48.2671 48.0852 49.2016 47.9227 50.2581C47.5976 53.8337 47.2725 57.2468 46.9475 60.4974C46.6224 63.748 46.2973 66.9174 45.9723 70.0054C47.5976 65.8609 49.6293 62.0821 52.0673 58.669C54.5864 55.1746 57.2682 52.696 60.1126 51.2332H60.3564V51.1113C63.4445 49.7298 66.2483 49.6892 68.7675 50.9895C70.3929 51.8021 71.5713 53.1836 72.3027 55.134C73.0341 57.0843 73.4404 59.441 73.5217 62.204C73.6842 64.8858 73.6029 67.8519 73.2779 71.1025C72.9528 74.3531 72.4652 77.685 71.8151 81.0981C71.1649 84.43 70.4335 87.7618 69.6208 91.0937C68.8894 94.3443 68.1987 97.3511 67.5485 100.114L66.0857 105.965C65.7607 107.509 65.395 109.053 64.9886 110.597C64.5823 112.141 64.176 113.645 63.7696 115.107C63.1195 117.627 62.4693 120.146 61.8192 122.665C61.2503 125.103 60.8034 127.338 60.4783 129.369C60.2345 131.401 60.2345 133.108 60.4783 134.489C60.7221 135.871 61.3722 136.765 62.4287 137.171C63.0788 137.415 63.9322 137.333 64.9886 136.927C66.0451 136.44 67.386 135.342 69.0113 133.636C70.718 131.848 72.709 129.288 74.9845 125.956C77.3412 122.624 80.0637 118.196 83.1518 112.67C83.4769 112.182 83.8832 112.06 84.3708 112.304Z" fill="#9FC049"/>
<path d="M76.1151 137.877C76.7923 139.57 78.4854 137.877 77.8081 134.491C77.476 132.831 76.7923 129.412 73.0293 122.131" stroke="black" stroke-width="2"/>
<path d="M51.8184 66.3965C53.4144 66.9616 56.8522 66.3826 57.8356 59.5469C55.8628 60.046 51.8977 62.1145 51.8184 66.3965Z" fill="black" stroke="black" stroke-width="2" stroke-linejoin="round"/>
<path d="M51.0082 72.0086C50.0339 72.7264 47.5623 73.044 45.4707 68.5724C46.9236 68.5044 50.0651 69.0959 51.0082 72.0086Z" fill="black" stroke="black" stroke-width="2" stroke-linejoin="round"/>
<path d="M97.5556 42.5381C98.6487 42.4924 100.571 41.3171 99.5135 36.9814C98.4506 37.756 96.5716 39.9515 97.5556 42.5381Z" fill="black" stroke="black" stroke-width="1.29237"/>
<path d="M101.855 51.191C101.285 52.1601 99.2888 53.3337 95.8691 50.2765C97.0858 49.6876 99.9863 49.0463 101.855 51.191Z" fill="black" stroke="black" stroke-width="2"/>
<path d="M93.5664 36.2959C97.0192 41.2994 99.5947 45.789 101.429 49.84" stroke="black" stroke-width="2"/>
<path d="M48.2246 78.9155C51.7651 72.5671 53.3691 65.4361 50.0195 56.6104" stroke="black" stroke-width="2" stroke-linejoin="round"/>
</svg>
