<svg width="27" height="27" viewBox="0 0 27 27" fill="none" xmlns="http://www.w3.org/2000/svg">
<rect width="26.136" height="26.136" rx="13.068" fill="#5C3822"/>
<path d="M10.464 12.4828C11.161 13.8525 12.2838 14.9754 13.6536 15.6723L14.7184 14.6075C14.8539 14.472 15.0426 14.4333 15.212 14.4865C15.7541 14.6656 16.3349 14.7624 16.9399 14.7624C17.0683 14.7624 17.1914 14.8134 17.2822 14.9042C17.3729 14.9949 17.4239 15.118 17.4239 15.2464V16.9404C17.4239 17.0688 17.3729 17.1919 17.2822 17.2826C17.1914 17.3734 17.0683 17.4244 16.9399 17.4244C14.7577 17.4244 12.6649 16.5575 11.1218 15.0145C9.57879 13.4714 8.71191 11.3786 8.71191 9.1964C8.71191 9.06804 8.76291 8.94493 8.85367 8.85416C8.94444 8.7634 9.06755 8.7124 9.19591 8.7124H10.8899C11.0183 8.7124 11.1414 8.7634 11.2322 8.85416C11.3229 8.94493 11.3739 9.06804 11.3739 9.1964C11.3739 9.8014 11.4707 10.3822 11.6498 10.9243C11.703 11.0937 11.6643 11.2824 11.5288 11.418L10.464 12.4828Z" fill="white"/>
</svg>
