<svg width="21" height="21" viewBox="0 0 21 21" fill="none" xmlns="http://www.w3.org/2000/svg">
<g clip-path="url(#clip0_355_4206)">
<path d="M19.2498 14.805V17.43C19.2507 17.6737 19.2008 17.9149 19.1032 18.1382C19.0056 18.3615 18.8624 18.5619 18.6828 18.7266C18.5033 18.8914 18.2913 19.0168 18.0604 19.0949C17.8296 19.1729 17.585 19.2019 17.3423 19.18C14.6497 18.8874 12.0634 17.9674 9.79101 16.4937C7.67686 15.1503 5.88443 13.3579 4.54101 11.2437C3.06224 8.96105 2.14197 6.36211 1.85476 3.65749C1.83289 3.41553 1.86165 3.17166 1.9392 2.94141C2.01674 2.71117 2.14138 2.4996 2.30518 2.32016C2.46897 2.14073 2.66834 1.99736 2.89058 1.8992C3.11281 1.80104 3.35306 1.75022 3.59601 1.74999H6.22101C6.64565 1.74581 7.05733 1.89619 7.3793 2.17308C7.70127 2.44998 7.91158 2.83451 7.97101 3.25499C8.0818 4.09505 8.28728 4.91988 8.58351 5.71374C8.70123 6.02693 8.72671 6.36729 8.65693 6.69451C8.58714 7.02173 8.42501 7.32209 8.18976 7.55999L7.07851 8.67124C8.32412 10.8618 10.1379 12.6756 12.3285 13.9212L13.4398 12.81C13.6777 12.5747 13.978 12.4126 14.3052 12.3428C14.6325 12.273 14.9728 12.2985 15.286 12.4162C16.0799 12.7125 16.9047 12.9179 17.7448 13.0287C18.1698 13.0887 18.558 13.3028 18.8355 13.6303C19.113 13.9578 19.2604 14.3759 19.2498 14.805Z" stroke="#5D5C5C" stroke-width="2" stroke-linecap="round" stroke-linejoin="round"/>
</g>
<defs>
<clipPath id="clip0_355_4206">
<rect width="21" height="21" fill="white"/>
</clipPath>
</defs>
</svg>
