<svg width="104" height="76" viewBox="0 0 104 76" fill="none" xmlns="http://www.w3.org/2000/svg">
<mask id="path-1-outside-1_248_4424" maskUnits="userSpaceOnUse" x="12" y="4" width="79" height="65" fill="black">
<rect fill="white" x="12" y="4" width="79" height="65"/>
<path d="M47.7968 27.632C47.7968 35.6053 45.0981 42.904 39.7008 49.528C34.4261 56.0293 27.6181 61.0587 19.2768 64.616L15.9648 57.624C18.9088 55.9067 21.8528 53.6373 24.7968 50.816C27.8634 47.872 30.5008 44.4987 32.7088 40.696L24.6127 34.992C21.9141 32.9067 20.0128 30.76 18.9088 28.552C17.9274 26.2213 17.4368 23.8293 17.4368 21.376C17.4368 17.2053 18.8474 13.832 21.6688 11.256C24.4901 8.67999 27.8021 7.39199 31.6048 7.39199C34.3034 7.39199 36.6341 7.94399 38.5968 9.04799C40.5594 10.0293 42.2768 11.1333 43.7488 12.36C46.4474 16.8987 47.7968 21.9893 47.7968 27.632ZM87.1728 27.632C87.1728 35.6053 84.4741 42.904 79.0768 49.528C73.8021 56.0293 66.9941 61.0587 58.6528 64.616L55.3408 57.624C58.2848 55.9067 61.2288 53.6373 64.1728 50.816C67.2394 47.872 69.8768 44.4987 72.0848 40.696L63.9888 34.992C61.2901 32.9067 59.3888 30.76 58.2848 28.552C57.3034 26.2213 56.8128 23.8293 56.8128 21.376C56.8128 17.2053 58.2234 13.832 61.0447 11.256C63.8661 8.67999 67.1781 7.39199 70.9808 7.39199C73.6794 7.39199 76.0101 7.94399 77.9728 9.04799C79.9354 10.0293 81.6528 11.1333 83.1248 12.36C85.8234 16.8987 87.1728 21.9893 87.1728 27.632Z"/>
</mask>
<path d="M39.7008 49.528L37.4719 47.7119L37.4681 47.7166L39.7008 49.528ZM19.2768 64.616L16.6785 65.8467L17.8619 68.3449L20.4046 67.2605L19.2768 64.616ZM15.9648 57.624L14.5161 55.1406L12.237 56.4701L13.3665 58.8547L15.9648 57.624ZM24.7968 50.816L26.786 52.8917L26.7878 52.89L24.7968 50.816ZM32.7088 40.696L35.195 42.1396L36.5173 39.8624L34.3646 38.3457L32.7088 40.696ZM24.6127 34.992L22.8548 37.2669L22.905 37.3057L22.9569 37.3423L24.6127 34.992ZM18.9088 28.552L16.259 29.6677L16.2954 29.754L16.3373 29.8377L18.9088 28.552ZM21.6688 11.256L23.6073 13.3791L23.6073 13.3791L21.6688 11.256ZM38.5968 9.04799L37.1872 11.5538L37.2483 11.5881L37.311 11.6195L38.5968 9.04799ZM43.7488 12.36L46.2199 10.8907L45.968 10.4669L45.5893 10.1514L43.7488 12.36ZM79.0768 49.528L76.8479 47.7119L76.8441 47.7166L79.0768 49.528ZM58.6528 64.616L56.0545 65.8467L57.2379 68.3449L59.7806 67.2605L58.6528 64.616ZM55.3408 57.624L53.8921 55.1406L51.613 56.4701L52.7425 58.8547L55.3408 57.624ZM64.1728 50.816L66.162 52.8917L66.1638 52.89L64.1728 50.816ZM72.0848 40.696L74.571 42.1396L75.8933 39.8624L73.7406 38.3457L72.0848 40.696ZM63.9888 34.992L62.2308 37.2669L62.281 37.3057L62.3329 37.3423L63.9888 34.992ZM58.2848 28.552L55.6351 29.6677L55.6714 29.754L55.7133 29.8377L58.2848 28.552ZM61.0447 11.256L62.9833 13.3791L62.9833 13.3791L61.0447 11.256ZM77.9728 9.04799L76.5632 11.5538L76.6243 11.5881L76.687 11.6195L77.9728 9.04799ZM83.1248 12.36L85.5959 10.8907L85.344 10.4669L84.9653 10.1514L83.1248 12.36ZM44.9218 27.632C44.9218 34.8945 42.4835 41.5614 37.4719 47.7119L41.9296 51.3441C47.7127 44.2466 50.6718 36.3162 50.6718 27.632H44.9218ZM37.4681 47.7166C32.5125 53.8247 26.0963 58.5821 18.1489 61.9714L20.4046 67.2605C29.1398 63.5352 36.3396 58.234 41.9334 51.3394L37.4681 47.7166ZM21.875 63.3852L18.563 56.3932L13.3665 58.8547L16.6785 65.8467L21.875 63.3852ZM17.4134 60.1074C20.5868 58.2562 23.7093 55.8402 26.786 52.8917L22.8075 48.7403C19.9962 51.4345 17.2307 53.5571 14.5161 55.1406L17.4134 60.1074ZM26.7878 52.89C30.0547 49.7537 32.8569 46.1665 35.195 42.1396L30.2225 39.2524C28.1447 42.8308 25.6721 45.9903 22.8057 48.742L26.7878 52.89ZM34.3646 38.3457L26.2686 32.6417L22.9569 37.3423L31.0529 43.0463L34.3646 38.3457ZM26.3707 32.7171C23.8912 30.8011 22.3317 28.9692 21.4802 27.2663L16.3373 29.8377C17.6938 32.5508 19.937 35.0122 22.8548 37.2669L26.3707 32.7171ZM21.5585 27.4363C20.7211 25.4477 20.3118 23.4343 20.3118 21.376H14.5618C14.5618 24.2244 15.1337 26.9949 16.259 29.6677L21.5585 27.4363ZM20.3118 21.376C20.3118 17.9304 21.441 15.357 23.6073 13.3791L19.7302 9.13285C16.2538 12.307 14.5618 16.4802 14.5618 21.376H20.3118ZM23.6073 13.3791C25.9016 11.2843 28.5231 10.267 31.6048 10.267V4.51699C27.081 4.51699 23.0786 6.07567 19.7302 9.13285L23.6073 13.3791ZM31.6048 10.267C33.9076 10.267 35.7329 10.7357 37.1872 11.5538L40.0063 6.54221C37.5353 5.1523 34.6993 4.51699 31.6048 4.51699V10.267ZM37.311 11.6195C39.1034 12.5157 40.629 13.5026 41.9082 14.5686L45.5893 10.1514C43.9245 8.76401 42.0154 7.54298 39.8825 6.47651L37.311 11.6195ZM41.2776 13.8293C43.6937 17.8928 44.9218 22.4697 44.9218 27.632H50.6718C50.6718 21.509 49.2011 15.9045 46.2199 10.8907L41.2776 13.8293ZM84.2978 27.632C84.2978 34.8945 81.8595 41.5614 76.848 47.7119L81.3056 51.3441C87.0887 44.2466 90.0478 36.3162 90.0478 27.632H84.2978ZM76.8441 47.7166C71.8885 53.8247 65.4723 58.5821 57.5249 61.9714L59.7806 67.2605C68.5158 63.5352 75.7156 58.234 81.3094 51.3394L76.8441 47.7166ZM61.251 63.3852L57.939 56.3932L52.7425 58.8547L56.0545 65.8467L61.251 63.3852ZM56.7894 60.1074C59.9628 58.2562 63.0853 55.8402 66.162 52.8917L62.1835 48.7403C59.3722 51.4345 56.6067 53.5571 53.8921 55.1406L56.7894 60.1074ZM66.1638 52.89C69.4307 49.7537 72.2329 46.1665 74.571 42.1396L69.5985 39.2524C67.5207 42.8308 65.0481 45.9903 62.1817 48.742L66.1638 52.89ZM73.7406 38.3457L65.6446 32.6417L62.3329 37.3423L70.4289 43.0463L73.7406 38.3457ZM65.7467 32.7171C63.2672 30.8011 61.7077 28.9692 60.8562 27.2663L55.7133 29.8377C57.0698 32.5508 59.313 35.0122 62.2308 37.2669L65.7467 32.7171ZM60.9345 27.4363C60.0971 25.4477 59.6878 23.4343 59.6878 21.376H53.9378C53.9378 24.2244 54.5097 26.9949 55.6351 29.6677L60.9345 27.4363ZM59.6878 21.376C59.6878 17.9304 60.817 15.357 62.9833 13.3791L59.1062 9.13285C55.6298 12.307 53.9378 16.4802 53.9378 21.376H59.6878ZM62.9833 13.3791C65.2776 11.2843 67.8991 10.267 70.9808 10.267V4.51699C66.457 4.51699 62.4546 6.07567 59.1062 9.13285L62.9833 13.3791ZM70.9808 10.267C73.2836 10.267 75.1089 10.7357 76.5632 11.5538L79.3823 6.54221C76.9113 5.1523 74.0753 4.51699 70.9808 4.51699V10.267ZM76.687 11.6195C78.4794 12.5157 80.005 13.5026 81.2842 14.5686L84.9653 10.1514C83.3005 8.76401 81.3914 7.54298 79.2585 6.47651L76.687 11.6195ZM80.6536 13.8293C83.0697 17.8928 84.2978 22.4697 84.2978 27.632H90.0478C90.0478 21.509 88.5771 15.9045 85.5959 10.8907L80.6536 13.8293Z" fill="black" mask="url(#path-1-outside-1_248_4424)"/>
</svg>
